<?xml version="1.0" encoding="UTF-8"?>
<svg width="81.399mm" height="37.412mm" version="1.1" viewBox="0 0 81.399 37.412" xmlns="http://www.w3.org/2000/svg">
<g transform="translate(-360.47 -3.339)">
<g transform="matrix(.092921 0 0 .092921 37.684 61.115)" fill="#f0f" stroke="#f0f" stroke-width="5.0043">
<path d="m569.14 28.724h2.944c8.277 44.865 9.83 90.641 9.408 136.17-0.777-0.019-2.34-0.058-3.117-0.077 0.336-50.355-0.7-84.328-9.235-136.09z" enable-background="new    " opacity=".82"/>
<path d="m376.89 54.983c0.959-0.393 1.928-0.786 2.906-1.189 7.804 23.643 30.333 85.474 31.333 104.63-0.671 0.125-2.033 0.393-2.705 0.518-4.81-28.076-15.261-55.573-31.534-103.96z" enable-background="new    " opacity=".82"/>
<path d="m773.43 109.11c0.556-2.052 4.21 0.182 2.743 1.4-18.059 27.957-37.586 54.955-54.916 83.381-0.834-0.748-1.669-1.487-2.494-2.215 17.512-27.985 36.502-55.012 54.667-82.566z" enable-background="new    " opacity=".82"/>
<path d="m199.42 144.95c0.873-0.614 1.736-1.218 2.609-1.822 14.392 20.433 47.186 54.288 65.322 72.304-0.834 0.719-1.659 1.429-2.474 2.148-17.218-17.336-51.477-52.61-65.457-72.63z" enable-background="new    " opacity=".82"/>
<path d="m476.49 211.54c158.59-25.388 274.28 60.457 345.73 205.73 28.299 56.554 42.392 109.34 31.525 173.79-16.769 101.97-90.305 186.89-137.93 264.29-26.13 43.19-27.282 56.998-33.98 77.205-15.677 48.588-36.291 103.84-75.44 136.44-4.65 4.682-16.25 23.034-41.029 33.088 0.633 5.371-0.412 10.981-3.971 15.201 33.58 5.053 60.861 15.924 63.73 18.692-1.899 2.82-5.793 3.011-8.67 4.402 2.148 1.141 4.325 2.254 6.474 3.424-2.32 3.426-15.282 8.086-22.423 11.595 9.34 1.647 25.726 5.824 23.133 15.019-1.218 5.304-6.522 7.922-10.866 10.348 5.956 2.791 12.19 5.15 17.637 8.91-0.284 3.758-26.845 12.323-38.698 14.885 7.078 2.474 14.53 4.757 20.256 9.85 1.496 1.429 3.357 2.81 3.923 4.92-2.839 2.676-6.368 4.421-9.763 6.263 4.335 2.666 8.91 5.15 12.314 9.034-8.306 5.332-17.647 8.795-26.796 12.382 9.888 2.455 19.91 4.536 29.539 7.979-0.949 1.266-2.091 2.417-3.654 2.906-55.127 22.304-123.26 9.824-148.53 10.77 8.958 0.623 17.752 2.964 26.768 2.858 11.25 0.403 22.49 1.285 33.663 2.647 3.079 0.355 4.268 4.21 7.471 4.277 19.009 3.654 39.082 9.217 52.95 23.574-9.003 6.302-39.23 7.16-50.265 7.174 2.534 102.38-25.191 280.39-37.624 318.08-2.1 1.41-4.862 2.014-7.193 0.815 19.16-73.808 41.887-243.47 37.106-319.13-10.552-0.31-58.624-3.126-73.608-8.881-10.629-4.046-17.776-13.817-9.974-19.862 5.85-4.709 13.494-5.985 20.62-7.596-9.514-1.276-18.97-3.069-28.225-5.601 3.251-4.373 9.236-3.107 13.926-2.983 51.236 1.28 105.8 11.018 156.18-7.088-9.092-2.82-18.357-5.169-27.727-6.79-8.879 1.871-68.379 22.493-152.75 2.148-1.4-0.528-3.453-0.326-3.923-2.072 2.8-2.311 6.512-2.628 9.955-3.194 7.931-1.218 15.863-2.57 23.871-3.213-14.846-2.427-30.115-5.735-42.937-13.935 13.635-10.153 137.76-23.363 183.19-6.637 2.762 1.17 4.815-1.937 6.905-3.261-3.328-4.92-9.236-7.049-14.328-9.639-4.287-1.544-8.622-4.489-13.341-3.28-33.368 6.076-104.83 11.337-148.4-3.242-0.29-6.548 53.736-12.545 75.996-10.061 23.075 1.208 46.285 2.331 68.976 7.011 3.529 0.537 7.068 2.311 10.674 1.314 11.288-2.618 22.644-5.457 33.251-10.195 0.057-0.211 0.182-0.652 0.24-0.873-5.131-2.877-10.483-5.342-16.103-7.097-44.482 13.75-158.56 10.601-189.49-0.057 3.501-4.361 22.758-9.883 29.098-11.096-3.846-2.532-7.644-5.198-10.713-8.66 2.407-2.82 5.822-4.335 9.015-6.033-7.471-2.743-15.383-5.217-21.426-10.626 3.506-2.156 1.915-1.98 29.856-7.318-12.161-0.499-24.437-2.762-35.495-7.989-1.496-0.441-1.084-2.494 0.345-2.705 40.082-22.176 95.654-18.941 140.87-12.967 2.196-3.529 3.098-7.749 2.331-11.854-20.793 6.57-43.58 5.371-63.979-2.033-6.924-2.331-13.35-5.812-19.862-9.054-42.879-16.315-71.843-65.432-101.45-128.72-6.797-15.602-27.82-39.581-70.894-155.56-28.629-73.695-110.09-210.63-114.94-298.7-3.595-58.59 27.378-93.213 29.952-102.65 34.007-113.74 141.93-177.53 258.92-196.37m27.947 2.619c-61.218 4.974-136.69 30.017-186 65.312-39.542 28.235-71.853 67.422-89.107 113.06 20.881-28.487 30.534-39.971 65.284-60.191 3.357-2.043 7.097-3.529 10.041-6.196 79.49-72.141 216.77-101.33 321.58-67.758 73.644 23.44 96.915 65.737 113.21 76.716 21.119 16.199 37.26 38.391 47.368 62.934 4.428 11.99 57.244 80.099 53.506 179.58-1.601 48.201-18.552 95.263-25.195 107.9 0.182 0.048 0.547 0.144 0.729 0.192 7.022-20.891 65.05-114.17 15.681-233.76-61.819-145.32-168.52-251.11-327.1-237.8m-0.882 37.461c-62.657 5.181-128.39 27.406-176.57 64.171 80.34-36.18 184.83-56.557 269.59-32.071 6.713 1.793 13.11 4.862 20.112 5.438 33.404 5.121 66.799 13.437 96.875 29.252-52.23-54.951-136.3-73.948-210.01-66.79m-78.692 37.873c-2.551 0.834-5.438 0.125-7.807 1.506-13.321 3.779-26.787 7.135-39.888 11.662-35.303 11.685-67.721 27.495-71.69 30.968-26.192 24.514-46.831 56.057-54.216 91.495-28.107 140.08-14.192 196.22 26.585 251.3-51.007-163.43-38.08-334.61 126.27-381.48 4.728-1.237 9.38-2.964 14.281-3.405 1.16-0.422 2.321-0.854 3.549-1.113 67.815-15.122 152.2-5.524 152.2-5.524 0.067-0.997-1.276-1.496-2.11-1.429-6.579-0.163-12.986-1.861-19.527-2.417-42.621-4.785-85.904-0.93-127.65 8.44m39.504 0.403c-168.32 15.926-228.28 133.43-200.43 303.27 5.611 33.097 13.849 65.811 25.06 97.451 6.8 9.37 14.597 18.021 21.79 27.103-22.285-68.745-44.825-125.34-17.273-210.95 33.067-102.47 124.36-183.36 229.17-188 73.76-2.626 143.14 20.782 196.54 74.673-7.826-14.079-15.873-28.158-26.23-40.569-21.665-26.863-51.147-47.09-83.592-58.618-41.638-6.402-109.73-8.132-145.04-4.364m169.76 8.2c25.431 13.901 49.115 29.885 71.508 61.371 15.821 22.451 28.994 52.088 34.526 58.455 49.235 63.859 74.897 160.52 52.25 256.58 10.032-27.554 17.609-56.652 16.055-86.22-5.497-75.655-6.276-133.99-25.185-182.92-14.99-24.255-32.915-46.601-51.828-67.902-5.781-6.699-37.068-26.926-97.326-39.36m-201.18 50.821c-101.18 51.72-162.31 171.6-142.39 277.78 4.57 25.944 29.682 102.61 32.944 106.9 15.422 19.546 29.721 40.003 42.4 61.428 4.427 7.594 17.08 21.443 35.821 68.621 19.521 49.44 32.262 101.23 49.977 137.94 8.251 16.098 16.023 29.049 40.281 38.583 25.745-93.576 29.578-221.21-20.409-304.81-7.816 3.232-16.218 5.073-24.658 5.409-16.167 0.704-48.539-9.352-58.35-26.135-8.187-13.382 2.64-31.187 24.84-32.867 16.208-1.362 32.695 6.522 42.218 19.632 6.781 8.306 13.015 17.052 18.529 26.25 18.098-8.267 32.896-22.74 43.609-39.331-38.852-44.808-28.7-119.98-5.63-118.6 17.341 0.316 27.715 39.308 28.676 57.87 1.252 34.431-14.406 56.561-15.268 60.277 14.367 14.981 34.277 23.986 54.724 26.71 5.879-8.21 12.286-16.16 20.169-22.557 50.846-42.355 115.96-2.184 68.372 19.22-21.089 9.091-60.54 12.274-80.936 10.272-1.889 0.057-4.69-1.093-5.448 1.4-52.267 95.334-33.656 212.84-13.043 319.59 8.737-3.05 17.119-7.26 24.495-12.861 5.698-4.089 24.018-62.957 26.25-69.81 18.789-58.862 36.123-106.76 71.307-169.21 67.263-122.15 136.04-188.1 40.492-373.29-40.615-52.795-104.09-87.174-178.49-92.08-41.354-3.77-83.573 4.708-120.48 23.659m-182.35 25.933c-31.869 39.425-29.023 40.99-30.642 46.812-27.733 108.85 24.965 212.79 37.365 244.98 40.962 104.85 20.709 77.643 118.52 289 10.425 17.973 22.816 34.785 36.387 50.504-4.565-19.415-6.17-15.786-15.374-52.451-18.237-74.419-82.368-170.64-111.72-255.63-5.096-15.421-48.578-47.059-53.938-131.84-2.522-46.774 4.651-93.404 13.571-139.18 5.985-31.064 21.493-59.865 42.583-83.285-13.494 8.709-26.854 18.271-36.752 31.093m546.54 53.353c12.527 59.296 11.214 78.203 16.678 151.52 6.594 74.072-38.815 144.36-47.886 164.6-12.919 28.197-27.87 55.405-42.822 82.566 98.642-136.86 152.89-247.67 74.03-398.68m-603.76 77.579c1.785 64.178 45.66 151.64 84.561 234.75-37.812-108.52-53.669-126.19-65.888-191.59-7.212-38.794-8.373-79.027-0.374-117.79-12.353 22.769-19.392 48.625-18.299 74.635m560.78-56.383c-0.086 0.959-0.154 1.918-0.192 2.896 0.374 0.201 1.122 0.604 1.487 0.806 59.584 136.55 18.485 207.83-31.879 293.84-92.982 157.53-87.958 200.66-117.18 270.96 18.232-19.614 21.148-44.878 24.715-55.434 32.867-100.96 156.74-209.59 163.42-337.72 3.836-60.701-10.3-122.46-40.377-175.35m-250.36 133.41c-11.395 23.382-7.829 69.72 17.158 100.01 29.315-50.143 4.961-102.55-7.807-107.02-4.536-0.912-7.461 3.605-9.351 7.01m124.46 100.33c-16.937 5.735-31.237 17.829-41.173 32.532 85.758 1.583 109.27-22.13 80.389-33.28-12.612-4.633-26.672-3.501-39.216 0.748m-234 14.434c-4.612 6.109-3.984 16.716 13.676 26.566 25.086 13.408 43.054 12.756 60.68 6.033-6.56-10.857-14.127-21.109-22.519-30.613-18.111-17.008-43.025-14.277-51.837-1.986m127.79-4.671c-11.164 16.832-26.422 31.141-44.616 40.099 50.701 89.058 45.722 210.94 20.323 309.47 21.205 6.723 44.347 7.816 65.85 1.822-21.175-110.25-39.254-225.76 13.273-324-20.361-3.625-40.271-12.401-54.83-27.391m-226.63 15.355c15.462 43.624 49.991 106.68 69.379 148.21 1.026-1.707-1.851-4.46-2.465-6.464-63.566-154.85-33.396-97.06-66.914-141.75m33.894 43.139c35.188 92.157 68.524 159.34 85.702 239.56 1.417 8.065 11.635 30.382 17.369 34.92 12.19 10.387 25.626 19.623 40.501 25.674 14.098 1.717 27.995 5.083 41.278 10.166 17.927 1.376 47.494-0.212 63.74-6.857 4.402-4.277 7.768-9.514 11.048-14.664-39.631 22.903-93.127 15.857-122.08-7.625-40.023-33.521-52.709-159.26-104.22-231.35-10.309-17.12-21.041-34.057-33.336-49.824m385.48 74.97c-34.011 52.443-72.023 107.8-81.406 150.57-9.268 40.514-32.76 52.992-34.852 58.254-2.455 5.054-5.467 9.802-8.545 14.491 11.749-6.244 21.234-16.036 28.791-26.863 2.215-3.05 2.839-6.848 4.086-10.329 23.139-68.39 70.141-143.09 102.04-201.49-3.559 4.995-6.714 10.251-10.109 15.363m-38.564 84.206c-8.265 14.129-24.866 66.415-44.338 102.33-2.311 4.671-5.975 8.699-7.241 13.859-2.254 8.469-5.102 16.803-8.804 24.754 33.381-34.997 53.569-98.244 66.809-141.88 5.073-15.355 12.19-29.971 20.236-43.973-10.416 14.02-18.204 29.701-26.662 44.912m-281.07 84.35c2.835 6.459 20.991 40.595 39.456 61.457-6.55-10.358-12.804-21.004-16.918-32.599-4.826-11.774 2.708 2.442-22.538-28.858m31.802 35.668c10.876 23.689 28.609 44.52 51.281 57.63 20.471 8.255 50.886 6.408 72.39 1.458-3.184-3.261-6.723-6.157-10.569-8.593-1.726-1.285-3.971-0.422-5.908-0.422-29.242 1.765-60.191-4.719-83.305-23.555-1.573-1.736-3.961-1.007-5.985-1.055 0.307-1.103 0.643-2.167 0.959-3.232-7.315-6.464-13.396-14.185-18.863-22.231m161.68 26.527c-3.184 1.525-6.819 2.388-9.351 5.016-8.67 8.459-19.862 14.194-31.697 16.64 3.616 2.762 7.203 5.611 10.128 9.13 14.846-4.287 28.954-11.221 41.221-20.668 5.608-4.255 13.443-22.417 16.256-30.009-7.424 8.296-16.468 15.154-26.557 19.891m-144.29-14.213c3.021 2.925 5.831 6.157 9.313 8.564 1.611 0.125 3.232-0.029 4.862-0.077-4.881-2.56-9.466-5.629-14.175-8.487m13.408 11.96c20.217 15.038 45.958 20.572 70.789 20.121-5.649-2.839-11.422-5.658-17.522-7.356-14.501-1.534-28.83-5.083-42.113-11.144-3.462-1.736-7.433-1.228-11.154-1.621m71.431 13.263c10.432 6.021 11.038 6.214 12.593 5.735 8.891-1.41 17.695-4.383 25.099-9.591-12.353 2.821-25.061 3.607-37.692 3.856m32.494 24.859c0.537 1.151 1.093 2.321 1.659 3.501 7.385-3.126 14.213-7.413 20.572-12.266-7.308 3.165-14.578 6.483-22.231 8.765m-56.183 6.839c15.706 3.248 28.978 5.44 51.003-0.729-0.451-1.477-1.093-2.887-1.813-4.22-16.044 4.153-32.684 5.131-49.19 4.949m-41.192 18.097c-19.943 2.504-37.457 8.61-41.451 11.739 13.475 5.073 27.976 6.426 42.247 7.126 8.258 0.537 16.362-1.458 24.552-2.072 25.324-2.881 47.78-0.681 63.96-14.923-29.452-4.977-59.653-5.342-89.308-1.87m72.851 13.734c24.523-1.18 49.824-1.515 73.378 6.445 1.554 0.499 3.088-0.47 4.623-0.691-10.657-5.621-38.56-14.31-56.892-16.764-6.521 4.584-13.686 8.133-21.109 11.01m-28.983 6.512c-32.644 4.354-22.425-1.254-67.902 7.327-2.772 0.767-6.042 0.575-8.459 2.148 5.639 3.271 11.768 5.793 18.136 7.27 3.516-0.16 32.461-9.692 101.56-6.023 6.397 0.182 12.88 1.535 19.21 0.038 10.742-2.225 21.55-4.354 31.966-7.855-23.746-7.116-48.807-6.752-73.321-5.802-7.174 0.097-14.108 2.034-21.186 2.897m69.091 12.622c5.419 1.055 10.866 2.11 16.362 2.695 6.877-2.024 13.619-4.757 19.968-8.085-2.34-0.997-4.834-2.829-7.452-1.755-9.514 2.761-19.086 5.543-28.878 7.145m-119.72 5.763c26.436 4.349 73.231-1.342 90.152-3.923-30.066-2.052-60.411-1.275-90.152 3.923m32.599 5.179c-12.794 0.058-25.703 0.662-38.343-1.765-3.51-1.132-7.001 0.604-9.696 2.762-0.182 1.323 1.218 1.985 2.091 2.676 20.737 11.661-6.414-1.729 94.823 2.781 4.569-0.189 32.836-6.992 46.342-11.825-41.738-5.613-2.865-0.545-95.217 5.371m63.298 7.347c17.839 1.496 35.648 4.124 52.806 9.36 5.902-2.194 15.126-8.883 5.093-14.175-5.831-2.944-12.171-4.661-18.452-6.311-12.814 4.767-26.097 8.229-39.447 11.126m-89.548 3.759c19.747 3.779 40.099 1.909 59.769-1.419-19.91-0.738-39.945-0.786-59.769 1.419m61.678 1.401c-23.328 3.368-50.484 8.703-75.69 1.055-8.689 0.288-16.717 4.421-25.128 6.253 7.228 1.691 112.4 17.718 173.59 0.7-18.011-5.38-36.771-7.644-55.405-9.677-5.86-0.94-11.604 0.93-17.368 1.669m-80.706 27.266c-0.786 0.278-2.158 0.23-2.426 1.18 13.127 1.469 13.81 5.432 61.035 6.771 23.814-0.307 47.714-1.151 71.268-5.006-17.636-4.486-90.673-11.537-129.88-2.945m50.073 18.826c-22.423 1.391-44.894 3.664-66.761 8.967 15.499 8.114 33.174 11.164 50.476 12.343 68.258-3.835 44.63 1.941 81.329-4.268 11.681-2.34 23.411-5.15 34.325-10.003-32.11-9.877-66.214-8.822-99.369-7.039m61.169 21.608c9.399 0.7 18.683 2.359 28.014 3.616 4.472-0.649 21.168-7.173 24.773-9.993-2.35-3.194-6.157-4.623-9.6-6.272-13.676 6.348-28.388 10.031-43.187 12.649m-26.595 2.877c-60.603 3.736-29.039-3.312-89.155 4.93 44.002 10.252 90.277 8.804 134.18-1.208-9.001-1.487-36.125-5.089-45.028-3.722m-71.978 34.105c-2.868 1.4-5.841 4.699-4.297 8.085 6.281 17.044 68.215 17.013 78.519 17.349-0.221-7.874-0.441-15.988-3.558-23.344-27.716-4.213-54.994-9.42-70.664-2.09m78.701 3.711c2.532 6.982 3.04 14.472 3.127 21.848 13.648 0.614 27.381 0.24 40.856-2.129-12.026-11.192-28.263-16.256-43.983-19.719z" enable-background="new    " opacity=".82"/>
<path d="m918.83 216.36c0.355 0.671 1.065 2.024 1.41 2.695-45.15 26.664-81.97 60.702-86.412 64.085-0.528-0.46-1.592-1.4-2.12-1.87 29.069-26.906 68.342-54.581 87.122-64.91z" enable-background="new    " opacity=".82"/>
<path d="m97.055 277.16c21.56 17.062 43.35 34.028 66.952 48.231-0.508 0.556-1.525 1.659-2.024 2.206-6.555-3.055-36.325-23.044-65.341-46.956-1.543-0.786 0.279-2.426 0.413-3.481z" enable-background="new    " opacity=".82"/>
<path d="m992.7 329.92c0.317 0.978 0.643 1.966 0.978 2.944-28.861 9.981-72.251 26.329-98.909 41.662-0.489-0.556-1.487-1.659-1.985-2.215 21.992-14.222 75.235-33.859 99.916-42.391z" enable-background="new    " opacity=".82"/>
<path d="m34.476 395.47c33.51 6.088 77.61 18.026 104.55 29.837 1.832 0.403 0.374 2.379 0.278 3.453-32.202-13.736-77.602-25.454-105.36-30.202 0.134-0.767 0.403-2.311 0.537-3.088z" enable-background="new    " opacity=".82"/>
<path d="m918.77 506.92c37.787-2.359 75.268-8.047 112.89-12.123-0.057 0.748-0.163 2.235-0.211 2.983-34.501 4.256-92.682 11.561-112.06 12.065-0.154-0.729-0.461-2.187-0.624-2.925z" enable-background="new    " opacity=".82"/>
<path d="m126.27 532.56c-0.01 0.681-0.019 2.033-0.029 2.714-32.915 2.637-65.696 6.79-98.515 10.415 0.038-0.767 0.125-2.321 0.163-3.088 21.283-2.367 87.818-10.387 98.381-10.041z" enable-background="new    " opacity=".82"/>
<path d="m921.6 609.11c0.211-1.017 0.441-2.014 0.681-3.011 33.797 2.935 67.087 10.3 101.02 11.912-0.057 0.7-0.173 2.1-0.23 2.8-34.094-1.036-67.518-8.881-101.47-11.701z" enable-background="new    " opacity=".82"/>
<path d="m98.647 721.68c23.161-12.88 46.774-25.022 70.981-35.812 0.374 0.94 0.767 1.889 1.16 2.839-23.977 10.818-47.426 22.807-70.405 35.601-0.585-0.883-1.16-1.765-1.736-2.628z" enable-background="new    " opacity=".82"/>
<path d="m889.22 692.81c18.945 3.617 58.11 24.915 85.28 37.605-0.412 0.959-0.796 1.928-1.17 2.916-28.318-13.254-63.068-32.277-84.398-37.557 0.077-0.749 0.221-2.226 0.288-2.964z" enable-background="new    " opacity=".82"/>
<path d="m166.26 845.63c18.357-21.55 36.598-43.235 56.432-63.461 0.623 0.508 1.861 1.525 2.474 2.024-19.872 20.294-38.296 41.95-56.556 63.692-0.786-0.768-1.563-1.516-2.35-2.255z" enable-background="new    " opacity=".82"/>
<path d="m822.82 783.6c23.401 14.06 46.764 28.983 65.619 48.951 1.343 1.132-0.902 2.091-1.304 3.05-18.683-19.642-41.48-34.641-64.584-48.519-1.88-0.701-0.086-2.427 0.269-3.482z" enable-background="new    " opacity=".82"/>
</g>
<g fill="#fff" stroke="#fff" stroke-width="0">
<path d="m378.09 40.37c0.32742-0.06307 0.8632-0.06307 1.1906 0 0.32742 0.06306 0.0595 0.11466-0.59532 0.11466-0.65484 0-0.92273-0.0516-0.59531-0.11466zm3.9718-5.29e-4c0.32911-0.06329 0.80536-0.06088 1.0583 0.0053 0.25297 0.06622-0.0163 0.118-0.5984 0.11507-0.58208-0.0029-0.78905-0.05712-0.45993-0.12041zm-5.8239-0.25256c0.1819-0.0734 0.47956-0.0734 0.66146 0s0.0331 0.13345-0.33073 0.13345c-0.3638 0-0.51263-0.06005-0.33073-0.13345zm7.9375 0c0.1819-0.0734 0.47956-0.0734 0.66146 0s0.0331 0.13345-0.33073 0.13345c-0.3638 0-0.51263-0.06005-0.33073-0.13345zm-8.9793-0.2701c0.191-0.07643 0.4192-0.06703 0.50712 0.02088 0.0879 0.08792-0.0683 0.15045-0.34726 0.13896-0.30823-0.0127-0.37092-0.07539-0.15986-0.15985zm10.319 0c0.191-0.07643 0.4192-0.06703 0.50712 0.02088 0.0879 0.08792-0.0684 0.15045-0.34727 0.13896-0.30822-0.0127-0.37091-0.07539-0.15985-0.15985zm-11.377-0.26458c0.19099-0.07643 0.4192-0.06703 0.50712 0.02088 0.0879 0.08792-0.0684 0.15045-0.34727 0.13896-0.30822-0.0127-0.37092-0.07539-0.15985-0.15985zm12.485-0.08384c0.21828-0.14106 0.51594-0.25648 0.66146-0.25648s0.086 0.11541-0.13229 0.25648c-0.21828 0.14107-0.51594 0.25648-0.66146 0.25648s-0.086-0.11541 0.13229-0.25648zm-14.552-0.52917c-0.21828-0.14107-0.27781-0.25648-0.13229-0.25648s0.44318 0.11541 0.66146 0.25648c0.21828 0.14106 0.27781 0.25648 0.13229 0.25648s-0.44318-0.11541-0.66146-0.25648zm15.632 0.16594c0.27227-0.24362 1.83-0.95949 1.83-0.84099 0 0.1524-1.4668 0.93963-1.7508 0.93963-0.10424 0-0.13992-0.04439-0.0793-0.09864zm-17.286-0.84644c-1.0258-0.55653-0.90967-0.74859 0.13229-0.21869 0.99735 0.50722 1.1739 0.63869 0.83785 0.62401-0.1334-0.0058-0.56996-0.18822-0.97014-0.40532zm-2.8721-1.8992c-0.90521-0.69122-2.0596-1.7926-2.5653-2.4474-0.86935-1.1257-0.8531-1.117 0.29796 0.15955 0.66961 0.7426 1.8767 1.8042 2.6824 2.3591 1.3623 0.93824 1.6434 1.1855 1.3479 1.1855-0.0644 0-0.85765-0.56555-1.7628-1.2568zm23.179 1.0788c0.14552-0.14498 0.91942-0.84537 1.7198-1.5564 1.1626-1.0328 1.269-1.0902 0.52916-0.28538-0.50932 0.5541-1.2832 1.2545-1.7198 1.5564-0.43656 0.30194-0.67469 0.43036-0.52916 0.28538zm3.0427-3.0969c0-0.05494 0.20836-0.2633 0.46302-0.46302 0.41965-0.32911 0.42901-0.31975 0.0999 0.0999-0.34564 0.44073-0.56292 0.58089-0.56292 0.36312zm-15.01-0.87721c0.25743-0.06708 0.61461-0.06267 0.79375 0.0098 0.17913 0.07248-0.0315 0.12736-0.46806 0.12197-0.43656-0.0054-0.58313-0.06469-0.32569-0.13177zm4.2333 0c0.25743-0.06708 0.61462-0.06267 0.79375 0.0098 0.17913 0.07248-0.0315 0.12736-0.46806 0.12197-0.43656-0.0054-0.58312-0.06469-0.32569-0.13177zm-5.677-0.26197c0.19099-0.07643 0.4192-0.06703 0.50712 0.02088 0.0879 0.08792-0.0684 0.15045-0.34727 0.13896-0.30822-0.0127-0.37092-0.07539-0.15985-0.15985zm7.4083 0c0.191-0.07643 0.4192-0.06703 0.50712 0.02088 0.0879 0.08792-0.0684 0.15045-0.34727 0.13896-0.30822-0.0127-0.37091-0.07539-0.15985-0.15985zm10.104-0.34843c0.15576-0.29104 0.34273-0.52917 0.41549-0.52917 0.0728 0 5e-3 0.23812-0.15091 0.52917-0.15576 0.29104-0.34273 0.52917-0.41549 0.52917-0.0728 0-5e-3 -0.23812 0.15091-0.52917zm-8.2021-0.26458c0.21828-0.14106 0.51594-0.25648 0.66146-0.25648s0.086 0.11541-0.13229 0.25648c-0.21828 0.14107-0.51594 0.25648-0.66146 0.25648s-0.086-0.11541 0.13229-0.25648zm-12.848-0.67606c-0.48427-0.38798-0.47583-0.39349 0.14786-0.09645 0.8099 0.38571 0.96 0.50792 0.62384 0.50792-0.14196 0-0.48923-0.18516-0.7717-0.41147zm14.435 0.03322c0-0.07276 0.23813-0.25973 0.52917-0.41549s0.52917-0.22367 0.52917-0.15091c0 0.07276-0.23813 0.25973-0.52917 0.41549-0.29104 0.15576-0.52917 0.22367-0.52917 0.15091zm-25.546-1.5001c-0.37604-0.74207-0.63934-1.3936-0.58511-1.4478 0.0542-0.05422 0.41812 0.55293 0.80866 1.3492s0.65384 1.4478 0.58512 1.4478c-0.0687 0-0.43263-0.60715-0.80867-1.3492zm65.664 0.79954c-0.38435-0.30233-0.83019-0.80834-0.99076-1.1245-0.17289-0.3404 0.0166-0.21997 0.4647 0.29532 0.41614 0.47856 1.1138 0.97435 1.5504 1.1017 0.5952 0.17368 0.65377 0.23731 0.23412 0.25436-0.3078 0.01252-0.8741-0.22462-1.2584-0.52694zm-38.795-0.07938c0-0.05494 0.20836-0.2633 0.46302-0.46302 0.41965-0.32911 0.429-0.31975 0.0999 0.0999-0.34565 0.44073-0.56292 0.58089-0.56292 0.36312zm-18.401-1.2892-1.0459-1.1245 1.1245 1.0459c1.0458 0.97266 1.2461 1.2031 1.0459 1.2031-0.0432 0-0.54924-0.50602-1.1245-1.1245zm24.77 0.99219c0-0.14552 0.17016-0.56224 0.37812-0.92604 0.20797-0.3638 0.37813-0.5424 0.37813-0.39688s-0.17016 0.56224-0.37813 0.92604c-0.20796 0.3638-0.37812 0.5424-0.37812 0.39688zm-4.7812-1.0583c0.34178-0.3638 0.68094-0.66146 0.7537-0.66146 0.0728 0-0.14734 0.29766-0.48912 0.66146-0.34177 0.3638-0.68094 0.66146-0.7537 0.66146-0.0728 0 0.14734-0.29766 0.48912-0.66146zm41.275 0.56156c0-0.05494 0.20836-0.2633 0.46302-0.46302 0.41964-0.32911 0.429-0.31975 0.0999 0.0999-0.34564 0.44073-0.56291 0.58089-0.56291 0.36312zm-16.145-1.0971c-0.18408-0.2218-0.28345-0.45451-0.22082-0.51713 0.0626-0.06262 0.2592 0.11885 0.43682 0.40327 0.38413 0.61508 0.25602 0.68262-0.216 0.11386zm1.2862-0.05975c0.30016-0.25466 0.75984-0.70676 1.0215-1.0047 0.26167-0.2979 0.36235-0.35743 0.22373-0.13229-0.44877 0.72889-1.2889 1.6-1.5432 1.6-0.13628 0-2e-3 -0.20836 0.29796-0.46302zm16.446-0.19844c0.34177-0.3638 0.68094-0.66146 0.7537-0.66146 0.0728 0-0.14734 0.29766-0.48912 0.66146-0.34177 0.3638-0.68094 0.66146-0.7537 0.66146-0.0728 0 0.14734-0.29766 0.48912-0.66146zm-7.2869 0.11469c-0.0959-0.1552-0.11766-0.33893-0.0483-0.40829 0.0694-0.06936 0.1966 0.05763 0.28277 0.28219 0.17891 0.46622 0.0264 0.54823-0.23447 0.1261zm-34.455-0.66461c0.25235-0.29744 0.81574-1.1884 1.252-1.9798 0.43623-0.79146 0.79419-1.32 0.79546-1.1744 4e-3 0.44353-1.4985 2.9118-2.0182 3.3157-0.46808 0.36381-0.46927 0.35721-0.0292-0.16148zm-22.486-0.17769c-0.39503-0.49503-1.1758-2.0867-1.0738-2.1888 0.049-0.04898 0.40202 0.49787 0.78454 1.2152 0.69751 1.3081 0.78134 1.5902 0.28923 0.97354zm11.245-0.12525c0.47294-0.05869 1.2468-0.05869 1.7198 0s0.086 0.10672-0.8599 0.10672c-0.94588 0-1.3328-0.04802-0.85989-0.10672zm15.962-0.22752c0.0127-0.30823 0.0754-0.37092 0.15985-0.15985 0.0764 0.191 0.067 0.4192-0.0209 0.50712-0.0879 0.08792-0.15046-0.06835-0.13897-0.34727zm38.476-0.11024c0.26339-0.29104 0.53842-0.52917 0.61118-0.52917 0.0728 0-0.0832 0.23812-0.3466 0.52917-0.26339 0.29104-0.53842 0.52917-0.61118 0.52917-0.0728 0 0.0832-0.23812 0.3466-0.52917zm-56.753 0c-0.48365-0.31256-0.0659-0.31256 0.66146 0 0.34892 0.14993 0.39398 0.23234 0.13229 0.24194-0.21828 8e-3 -0.57546-0.10087-0.79375-0.24194zm6.0749-0.13849c0.64904-0.20222 1.2207-0.32709 1.2703-0.27747 0.13536 0.13536-1.5398 0.6832-2.0268 0.66285-0.23295-0.0097 0.10749-0.18315 0.75653-0.38538zm-8.2476-1.2506c-0.64105-0.61846-0.8014-0.81505-0.35633-0.43686 0.44507 0.37819 1.1036 0.88421 1.4634 1.1245 0.3598 0.24027 0.52014 0.43686 0.35632 0.43686s-0.82235-0.50602-1.4634-1.1245zm38.992 0.59531c0-0.3638 0.0601-0.51263 0.13345-0.33073 0.0734 0.1819 0.0734 0.47956 0 0.66146s-0.13345 0.03307-0.13345-0.33073zm-28.617-0.16811c0.3638-0.26016 1.1236-0.94561 1.6886-1.5232 0.5649-0.57761 0.90326-0.8203 0.7519-0.53933-0.35272 0.65476-1.2985 1.5085-2.3082 2.0835-0.77765 0.44288-0.78033 0.44246-0.13229-0.02098zm38.544-0.50564c-0.62155-1.3034-0.53411-1.5252 0.1157-0.29346 0.29513 0.55944 0.4898 1.064 0.4326 1.1212-0.0572 0.0572-0.30394-0.31526-0.5483-0.82769zm-64.188 0.25483c0.0127-0.30823 0.0754-0.37092 0.15986-0.15985 0.0764 0.191 0.067 0.4192-0.0209 0.50712-0.0879 0.08792-0.15046-0.06835-0.13897-0.34727zm46.083-0.02805c0.61515-0.16076 0.58141-0.31918-0.29236-1.3726-0.65285-0.78712-0.80959-0.85692-1.3158-0.586-0.47382 0.25358-0.57465 0.23628-0.57465-0.09864 0-0.43983-0.27215-0.52294-0.68029-0.20774-0.14132 0.10914-0.0163-0.02379 0.27781-0.29539 0.47405-0.43775 0.54448-0.44526 0.62031-0.06615 0.1044 0.52192 0.10288 0.52188 1.2783 0.03075 0.83721-0.3498 0.91119-0.35018 0.62317-0.0031-0.26557 0.31998-0.24269 0.42608 0.12203 0.56604 0.34633 0.1329 0.37065 0.22058 0.10646 0.38385-0.27372 0.16917-0.2597 0.30772 0.0699 0.69078 0.81823 0.95105 0.82604 1.1422 0.0453 1.1099-0.44728-0.01847-0.55886-0.07887-0.2802-0.15169zm-1.4552-0.25743c0.1819-0.0734 0.47956-0.0734 0.66146 0s0.0331 0.13345-0.33073 0.13345c-0.3638 0-0.51263-0.06006-0.33073-0.13345zm13.824 0.07533c0-0.05494 0.20836-0.2633 0.46302-0.46302 0.41964-0.32911 0.429-0.31975 0.0999 0.0999-0.34565 0.44073-0.56292 0.58089-0.56292 0.36312zm-22.204-0.58361c0.0127-0.30823 0.0754-0.37092 0.15985-0.15985 0.0764 0.191 0.067 0.4192-0.0209 0.50712-0.0879 0.08792-0.15045-0.06835-0.13896-0.34727zm7.0567 0.2437c0.1819-0.0734 0.47956-0.0734 0.66146 0s0.0331 0.13345-0.33073 0.13345c-0.3638 0-0.51263-0.06006-0.33073-0.13345zm10.67-0.2437c0.0127-0.30823 0.0754-0.37092 0.15985-0.15985 0.0764 0.191 0.067 0.4192-0.0209 0.50712-0.0879 0.08792-0.15046-0.06835-0.13897-0.34727zm23.729 0.23179c0.32912-0.06329 0.80537-0.06088 1.0583 0.0053 0.25297 0.06622-0.0163 0.118-0.59839 0.11507-0.58209-0.0029-0.78906-0.05712-0.45994-0.12041zm-77.968-0.49638c0.0127-0.30823 0.0754-0.37092 0.15985-0.15985 0.0764 0.191 0.067 0.4192-0.0209 0.50712-0.0879 0.08792-0.15045-0.06835-0.13896-0.34727zm42.246 0.2437c0.1819-0.0734 0.47955-0.0734 0.66146 0 0.1819 0.0734 0.0331 0.13345-0.33073 0.13345-0.36381 0-0.51263-0.06006-0.33073-0.13345zm-34.838-0.50827c0.0127-0.30823 0.0754-0.37092 0.15985-0.15985 0.0764 0.191 0.067 0.4192-0.0209 0.50712-0.0879 0.08792-0.15045-0.06835-0.13897-0.34726zm32.67-0.4337c-0.22653-0.32342-0.40165-0.82943-0.38914-1.1245 0.017-0.40106 0.0791-0.34855 0.24623 0.20808 0.12291 0.40949 0.36538 0.9155 0.53882 1.1245 0.17344 0.20898 0.24798 0.37996 0.16565 0.37996-0.0823 0-0.33503-0.26462-0.56156-0.58804zm19.829 0.05887c0.26339-0.29104 0.53842-0.52917 0.61119-0.52917 0.0728 0-0.0832 0.23812-0.3466 0.52917-0.26339 0.29104-0.53843 0.52917-0.61119 0.52917-0.0728 0 0.0832-0.23812 0.3466-0.52917zm-46.315-0.81834c-0.23275-0.45009-0.37621-0.86531-0.3188-0.92272 0.0574-0.05741 0.30239 0.31084 0.5444 0.81834 0.54413 1.1411 0.3556 1.2283-0.2256 0.10438zm23.206 0.28917c0-0.3638 0.06-0.51263 0.13345-0.33073 0.0734 0.1819 0.0734 0.47956 0 0.66146s-0.13345 0.03307-0.13345-0.33073zm5.4649 0.34843c0.191-0.07643 0.4192-0.06703 0.50712 0.02088 0.0879 0.08792-0.0684 0.15045-0.34726 0.13896-0.30823-0.0127-0.37092-0.07539-0.15986-0.15985zm20.951-0.67916c-0.38954-0.5321-0.45343-0.7169-0.16761-0.48478 0.43386 0.35235 1.0899 1.3447 0.88895 1.3447-0.0505 0-0.37512-0.38695-0.72134-0.8599zm-63.432-0.33073c3e-3 -0.58208 0.0571-0.78905 0.12041-0.45994 0.0633 0.32912 0.0609 0.80537-5e-3 1.0583-0.0662 0.25296-0.118-0.01631-0.11507-0.5984zm7.3625 0.50712c0.0127-0.30823 0.0754-0.37092 0.15985-0.15985 0.0764 0.191 0.067 0.4192-0.0209 0.50712-0.0879 0.08792-0.15046-0.06835-0.13897-0.34727zm42.18-0.90399c0.71666-0.7276 1.3626-1.3229 1.4353-1.3229 0.0728 0-0.45407 0.59531-1.1707 1.3229-0.71666 0.7276-1.3626 1.3229-1.4353 1.3229-0.0728 0 0.45407-0.59531 1.1707-1.3229zm-8.3303 0.59531c3e-3 -0.33038 0.0642-0.36828 0.21404-0.13231 0.16488 0.25967 0.32031 0.24726 0.72355-0.05773 0.62716-0.47436 0.91044-0.50442 0.91044-0.09659 0 0.16977-0.0752 0.23351-0.16705 0.14163-0.0919-0.09188-0.41602 0.0073-0.72033 0.22049-0.7252 0.50795-0.96559 0.48906-0.96065-0.07549zm-12.154-0.33073c0.38571-0.8099 0.50792-0.96 0.50792-0.62384 0 0.14196-0.18516 0.48923-0.41147 0.7717-0.38798 0.48427-0.39349 0.47583-0.0965-0.14787zm4.7621 0.11024c0.0127-0.30823 0.0754-0.37092 0.15985-0.15985 0.0764 0.191 0.067 0.4192-0.0209 0.50712-0.0879 0.08792-0.15046-0.06835-0.13897-0.34726zm26.989 0.34405c0.0606-0.04118 0.34837-0.24954 0.63941-0.46302 0.48948-0.35904 0.50193-0.35343 0.16604 0.07487-0.19972 0.25466-0.48745 0.46302-0.63941 0.46302-0.15195 0-0.22667-0.03369-0.16604-0.07487zm-53.66-1.5126c0-0.65484 0.0516-0.92273 0.11466-0.59531 0.0631 0.32742 0.0631 0.8632 0 1.1906s-0.11466 0.05953-0.11466-0.59531zm39.88 0.79375c0-0.14552 0.11906-0.26458 0.26458-0.26458s0.26459 0.11906 0.26459 0.26458c0 0.14552-0.11907 0.26458-0.26459 0.26458s-0.26458-0.11906-0.26458-0.26458zm-27.914-0.48728c-0.43656-0.26692-0.96874-0.71296-1.1826-0.9912-0.29653-0.38578-0.23326-0.36793 0.26647 0.07517 0.36044 0.31959 1.0712 0.76141 1.5795 0.98183 0.50828 0.22042 0.74556 0.40498 0.52727 0.41013-0.21828 0.0052-0.75406-0.20902-1.1906-0.47593zm2.9931 0.30654c0.19099-0.07643 0.4192-0.06703 0.50712 0.02087 0.0879 0.08792-0.0684 0.15045-0.34727 0.13896-0.30823-0.0127-0.37092-0.07539-0.15985-0.15985zm16.718 0.07931c0-0.05579 0.23829-0.16374 0.52953-0.23991 0.29124-0.07616 0.46281-0.03052 0.38126 0.10143-0.14241 0.23043-0.91079 0.34725-0.91079 0.13848zm1.9688-0.28084c0.66895-0.53594 0.94653-0.5204 0.92072 0.05155-0.0123 0.27307-0.0753 0.32821-0.15363 0.13441-0.0982-0.24315-0.28202-0.25656-0.70672-0.05155-0.55521 0.26801-0.55719 0.26362-0.0604-0.13441zm12.378-0.62111-0.6023-0.98099 0.66844 0.74236c0.36765 0.4083 0.66845 0.85478 0.66845 0.99219 0 0.38907-0.0893 0.29747-0.73459-0.75356zm-29.406 0.0024c0.51512-0.46026 0.96409-1.2294 1.197-2.0505 0.25905-0.91322 0.34568-1.0517 0.28404-0.45412-0.0659 0.63855 0.0187 0.86468 0.32851 0.87849 0.37788 0.01685 0.37766 0.03554-2e-3 0.19844-0.23075 0.09891-0.80864 0.62632-1.2842 1.172-0.47555 0.5457-0.97324 0.99219-1.106 0.99219-0.13275 0 0.12958-0.33143 0.58294-0.7365zm10.2 0.33632c-0.17156-0.44708 0.13604-0.69746 0.54332-0.44225 0.20192 0.12653 0.18538 0.27694-0.055 0.49992-0.26983 0.25031-0.37491 0.2379-0.48833-0.05767zm3.2696-1.3852 0.12992-1.7865 0.0807 1.6366c0.0629 1.2757 0.18013 1.6628 0.53154 1.7552 0.29142 0.0767 0.21694 0.1297-0.21062 0.1499-0.65538 0.03096-0.66026 0.01484-0.53154-1.7552zm8.6675 1.6102c0.1819-0.0734 0.47956-0.0734 0.66146 0s0.0331 0.13345-0.33073 0.13345c-0.3638 0-0.51263-0.06006-0.33073-0.13345zm-32.721-0.50828c0.0127-0.30823 0.0754-0.37092 0.15985-0.15985 0.0764 0.191 0.067 0.4192-0.0209 0.50712-0.0879 0.08792-0.15045-0.06835-0.13897-0.34727zm22.403 0.2437c0.1819-0.0734 0.47956-0.0734 0.66146 0s0.0331 0.13345-0.33073 0.13345c-0.3638 0-0.51263-0.06006-0.33073-0.13345zm4.7949-0.15558c0.22412-0.28578 0.67988-0.44785 1.1906-0.42338l0.8275 0.03964-0.79375 0.11606c-0.43656 0.06383-0.97234 0.25435-1.1906 0.42338-0.34539 0.26745-0.34977 0.24725-0.0337-0.1557zm4.2009 0.1555c0.1819-0.0734 0.47956-0.0734 0.66146 0s0.0331 0.13345-0.33073 0.13345c-0.3638 0-0.51263-0.06006-0.33073-0.13345zm-14.994-0.39804c-0.0115-0.24253-0.16972-0.50103-0.35162-0.57442-0.19757-0.07972-0.14431-0.14186 0.13229-0.15434 0.25466-0.01148 0.46485-0.16972 0.46707-0.35162 3e-3 -0.22357 0.0839-0.2044 0.25062 0.05916 0.13561 0.21444 0.15164 0.45256 0.0356 0.52917-0.11602 0.0766-0.27893 0.31787-0.36202 0.53615-0.12457 0.32726-0.15474 0.31952-0.17196-0.0441zm13.407 0.13345c0.1819-0.0734 0.47956-0.0734 0.66146 0s0.0331 0.13345-0.33073 0.13345c-0.3638 0-0.51263-0.06006-0.33073-0.13345zm-10.583-0.2646c0.1819-0.0734 0.47956-0.0734 0.66146 0s0.0331 0.13345-0.33073 0.13345c-0.3638 0-0.51263-0.06006-0.33073-0.13345zm-10.35-0.29724c-0.0707-0.11434 0.1009-0.20789 0.38126-0.20789 0.28035 0 0.50974 0.09355 0.50974 0.20789 0 0.11434-0.17157 0.20789-0.38126 0.20789s-0.43908-0.09355-0.50974-0.20789zm8.7624 0.03266c0.1819-0.0734 0.47956-0.0734 0.66146 0s0.0331 0.13345-0.33073 0.13345c-0.3638 0-0.51263-0.06006-0.33073-0.13345zm20.633-0.12219c0.17948-0.18082 0.39297-0.26212 0.47443-0.18065 0.0815 0.08146-0.0654 0.22941-0.32632 0.32877-0.37708 0.14358-0.40747 0.11319-0.14811-0.14811zm-38.487-1.0255c0-0.65484 0.0516-0.92273 0.11467-0.59531 0.0631 0.32742 0.0631 0.8632 0 1.1906-0.0631 0.32742-0.11467 0.05953-0.11467-0.59531zm7.9822 0.38228c-0.49319-0.39513-0.48995-0.40001 0.0817-0.12298 0.32742 0.15867 0.59531 0.34383 0.59531 0.41147 0 0.20246-0.13721 0.144-0.67703-0.28849zm6.9609 0.23624c0.18191-0.0734 0.47956-0.0734 0.66146 0s0.0331 0.13345-0.33073 0.13345c-0.3638 0-0.51263-0.06006-0.33073-0.13345zm-10.69-0.49764c-0.0862-0.22456-0.0976-0.4674-0.0253-0.53966 0.0723-0.07226 0.19488 0.11147 0.2725 0.40829 0.16488 0.63048-0.0183 0.72784-0.2472 0.13137zm5.7504-0.01064c0.0127-0.30823 0.0754-0.37092 0.15985-0.15985 0.0764 0.19099 0.067 0.4192-0.0209 0.50712-0.0879 0.08792-0.15045-0.06835-0.13896-0.34727zm3.3525 0.24369c0.18191-0.0734 0.47956-0.0734 0.66146 0s0.0331 0.13345-0.33073 0.13345c-0.3638 0-0.51263-0.06006-0.33073-0.13345zm8.0856-1.28c2e-3 -0.87312 0.0509-1.1984 0.10976-0.72286 0.0589 0.47555 0.0577 1.1899-3e-3 1.5875-0.0604 0.39758-0.10855 0.0085-0.10706-0.86464zm-14.782 0.51457c-0.49319-0.39513-0.48995-0.40001 0.0817-0.12298 0.32742 0.15867 0.59531 0.34383 0.59531 0.41147 0 0.20246-0.13721 0.144-0.67703-0.28849zm4.1166-0.1177c0-0.29104 0.0456-0.52917 0.10143-0.52917 0.0558 0 0.1637 0.23812 0.23981 0.52917 0.0761 0.29104 0.0305 0.52917-0.10143 0.52917-0.1319 0-0.23981-0.23812-0.23981-0.52917zm-23.746-0.66146c3e-3 -0.58208 0.0571-0.78905 0.12041-0.45994 0.0633 0.32912 0.0609 0.80537-5e-3 1.0583-0.0662 0.25297-0.118-0.01631-0.11507-0.5984zm7.1438 0c3e-3 -0.58208 0.0571-0.78905 0.12041-0.45994 0.0633 0.32912 0.0609 0.80537-5e-3 1.0583-0.0662 0.25297-0.118-0.01631-0.11507-0.5984zm23.037-0.66146c0-0.94589 0.048-1.3328 0.10672-0.8599 0.0587 0.47294 0.0587 1.2468 0 1.7198-0.0587 0.47294-0.10672 0.08599-0.10672-0.8599zm-11.462 0.79375c0-0.14552 0.12609-0.26458 0.2802-0.26458s0.20662 0.11906 0.11668 0.26458c-0.0899 0.14552-0.21603 0.26458-0.2802 0.26458-0.0642 0-0.11668-0.11906-0.11668-0.26458zm4.534-0.06615c-0.0261-0.33591-0.26604-0.46302-0.87388-0.46302-1.1427 0-0.87359-0.15959 0.63941-0.37918 1.108-0.16081 1.2543-0.12566 1.2359 0.29683-0.0121 0.27772-0.077 0.34016-0.15433 0.1485-0.21098-0.52286-0.57107-0.38604-0.69639 0.26458-0.0761 0.3951-0.12677 0.4396-0.15069 0.13229zm-3.1398-0.38179c0.25743-0.06708 0.61462-0.06267 0.79375 0.0098 0.17913 0.07248-0.0315 0.12736-0.46805 0.12197-0.43657-0.0054-0.58313-0.06469-0.3257-0.13177zm-6.9295-0.50015c0.0127-0.30823 0.0754-0.37092 0.15985-0.15985 0.0764 0.191 0.067 0.4192-0.0209 0.50712-0.0879 0.08792-0.15045-0.06835-0.13897-0.34727zm23.833-0.11024c0-0.3638 0.06-0.51263 0.13345-0.33073 0.0734 0.1819 0.0734 0.47956 0 0.66146s-0.13345 0.03307-0.13345-0.33073zm-19.886 0.01562c0-0.13693 0.1177-0.32171 0.26156-0.41062 0.14998-0.09269 0.19433 0.01352 0.10398 0.24897-0.17589 0.45837-0.36554 0.54224-0.36554 0.16165zm-16.912-0.69912c0.0127-0.30823 0.0754-0.37092 0.15985-0.15985 0.0764 0.191 0.067 0.4192-0.0209 0.50712-0.0879 0.08792-0.15045-0.06835-0.13896-0.34727zm7.1438 0c0.0127-0.30823 0.0754-0.37092 0.15985-0.15985 0.0764 0.191 0.067 0.4192-0.0209 0.50712-0.0879 0.08792-0.15046-0.06835-0.13897-0.34727zm15.083-0.47584-0.6387-0.82503 0.75696 0.71959c0.41634 0.39577 0.70375 0.76704 0.63871 0.82503-0.065 0.05799-0.40568-0.26582-0.75697-0.71958zm2.6649 0.3656c0-0.3638 0.06-0.51263 0.13345-0.33073 0.0734 0.1819 0.0734 0.47956 0 0.66146s-0.13345 0.03307-0.13345-0.33073zm-7.3357-0.23572c0.18877-0.30543 1.2085-0.92146 1.2085-0.73006 0 0.06114-0.31232 0.31581-0.69404 0.56592-0.38172 0.25011-0.61321 0.32398-0.51443 0.16414zm16.331-0.55803c0-0.3638 0.0601-0.51263 0.13345-0.33073 0.0734 0.1819 0.0734 0.47956 0 0.66146s-0.13345 0.03307-0.13345-0.33073zm-26.477 0c-8e-3 -0.21828 0.10087-0.57547 0.24194-0.79375 0.31256-0.48365 0.31256-0.06591 0 0.66146-0.14994 0.34892-0.23235 0.39398-0.24194 0.13229zm-7.1455-0.41892c0.0127-0.30823 0.0754-0.37092 0.15986-0.15985 0.0764 0.191 0.067 0.4192-0.0209 0.50712-0.0879 0.08792-0.15046-0.06835-0.13897-0.34727zm13.895-0.15506c0.58877-0.82539 2.4119-2.0765 3.0042-2.0615 0.22554 0.0057-7e-3 0.19036-0.51598 0.41036-0.50932 0.22-1.3909 0.84042-1.959 1.3787-0.75967 0.71977-0.89967 0.79185-0.52916 0.27244zm5.0844 0.12866c0.191-0.07643 0.4192-0.06703 0.50712 0.02088 0.0879 0.08792-0.0684 0.15045-0.34726 0.13896-0.30823-0.0127-0.37092-0.07539-0.15986-0.15985zm10.389-0.23818c0.0127-0.30823 0.0754-0.37092 0.15985-0.15985 0.0764 0.191 0.067 0.4192-0.0209 0.50712-0.0879 0.08792-0.15046-0.06835-0.13897-0.34727zm-5.9907-0.70556-0.7771-0.8599 0.85989 0.7771c0.80155 0.72437 0.98152 0.94269 0.77711 0.94269-0.0455 0-0.43249-0.38695-0.8599-0.8599zm9.9594-0.08819c0.0127-0.30823 0.0754-0.37092 0.15985-0.15985 0.0764 0.19099 0.067 0.4192-0.0209 0.50712-0.0879 0.08792-0.15046-0.06835-0.13897-0.34727zm-25.685-0.09463c0-0.13693 0.1177-0.32171 0.26156-0.41062 0.14998-0.09269 0.19433 0.01352 0.10398 0.24897-0.17589 0.45837-0.36554 0.54223-0.36554 0.16165zm21.332-0.15814c-0.25532-0.66534-0.18-0.83702 0.1319-0.30066 0.15443 0.26558 0.22505 0.5386 0.15693 0.60672-0.0681 0.06812-0.1981-0.06961-0.28883-0.30607zm-28.467-0.25436c0-0.14552 0.11541-0.44318 0.25648-0.66146 0.14106-0.21828 0.25648-0.27781 0.25648-0.13229s-0.11542 0.44318-0.25648 0.66146c-0.14107 0.21828-0.25648 0.27781-0.25648 0.13229zm32.557-0.30909c-0.0115-0.17-0.0894-0.52719-0.17316-0.79375-0.14474-0.4607-0.13727-0.46127 0.15102-0.01167 0.1668 0.26014 0.24473 0.61733 0.17315 0.79375-0.0939 0.23151-0.13594 0.23476-0.15101 0.01167zm2.2608-0.23031c-0.25531-0.66534-0.17999-0.83702 0.13191-0.30066 0.15443 0.26558 0.22505 0.5386 0.15693 0.60672-0.0681 0.06812-0.1981-0.06961-0.28884-0.30607zm-26.913-0.29559c0.3647-0.7376 2.554-2.9269 3.2916-3.2915 0.31372-0.15512 0.15487 0.05505-0.353 0.46704-1.1559 0.93768-1.5338 1.3156-2.4715 2.4715-0.41198 0.50787-0.62215 0.66672-0.46704 0.35299zm9.2198-0.0016c0.1819-0.0734 0.47956-0.0734 0.66146 0s0.0331 0.13345-0.33073 0.13345c-0.3638 0-0.51263-0.06006-0.33073-0.13345zm2.6458 0c0.18191-0.0734 0.47956-0.0734 0.66146 0s0.0331 0.13345-0.33073 0.13345c-0.3638 0-0.51263-0.06006-0.33073-0.13345zm-19.248-0.52396c0-0.14196 0.18516-0.48923 0.41147-0.7717 0.38798-0.48427 0.39349-0.47583 0.0965 0.14787-0.38571 0.8099-0.50792 0.96-0.50792 0.62384zm25.935-1.5007c-0.79741-0.9002-1.1604-1.3986-0.8067-1.1076 0.95641 0.78691 2.6906 2.8369 2.3358 2.7612-0.0436-0.0093-0.73172-0.75345-1.5291-1.6536zm-24.068-1.6367c0.59491-0.89242 2.4547-2.7912 3.2925-3.3614 0.43657-0.29716 0.23572-0.04652-0.44632 0.55699-0.68203 0.6035-1.6808 1.6005-2.2195 2.2154-0.53869 0.61499-0.8207 0.88004-0.62669 0.589zm28.173-0.28638c-0.24623-0.37579-0.86896-1.1795-1.3839-1.7859-0.69993-0.82441-0.62531-0.77607 0.2957 0.19155 1.1307 1.1879 1.9187 2.2776 1.647 2.2776-0.0611 0-0.31263-0.30746-0.55886-0.68326zm-18.282 0.03639c0.28247-0.22631 0.62974-0.41147 0.7717-0.41147 0.33617 0 0.18607 0.12221-0.62383 0.50792-0.6237 0.29703-0.63214 0.29153-0.14787-0.09645zm11.525-0.14689c-0.50932-0.27884-0.83083-0.51198-0.71446-0.51808 0.28037-0.0147 1.7728 0.76127 1.7728 0.92175 0 0.17317-0.0155 0.16726-1.0583-0.40367zm-9.6573-0.67101c0.43656-0.1999 0.97234-0.35976 1.1906-0.35526 0.21829 0.0045-0.0198 0.16867-0.52916 0.36481-1.208 0.4652-1.6833 0.45834-0.66146-0.0096zm17.542-0.40177c-0.32864-0.44451-1.2549-1.3014-2.0584-1.9042-1.6699-1.2528-2.185-1.7017-1.5932-1.3884 1.4828 0.78511 5.03 4.1008 4.387 4.1008-0.0758 0-0.40672-0.36369-0.73537-0.80821zm-10.316 0.0983c0.191-0.07643 0.4192-0.06703 0.50712 0.02089 0.0879 0.08792-0.0683 0.15045-0.34727 0.13896-0.30822-0.0127-0.37091-0.07539-0.15985-0.15985zm-4.776-0.27097c0.32912-0.06329 0.80537-0.06088 1.0583 0.0053 0.25297 0.06622-0.0163 0.118-0.59839 0.11507-0.58209-0.0029-0.78906-0.05712-0.45994-0.12041zm3.0396 0.0047c0.25466-0.06655 0.67138-0.06655 0.92604 0 0.25467 0.06655 0.0463 0.121-0.46302 0.121s-0.71768-0.05445-0.46302-0.121zm7.8376-1.8681c-0.32911-0.41964-0.31975-0.429 0.0999-0.0999 0.44073 0.34564 0.58089 0.56292 0.36313 0.56292-0.0549 0-0.2633-0.20836-0.46302-0.46302zm-20.868-0.4444c0-0.07276 0.23813-0.25973 0.52917-0.41549s0.52917-0.22367 0.52917-0.15091-0.23813 0.25973-0.52917 0.41549c-0.29104 0.15576-0.52917 0.22367-0.52917 0.15091zm19.696-0.29775c-0.49319-0.39513-0.48995-0.40001 0.0817-0.12298 0.32742 0.15867 0.59531 0.34383 0.59531 0.41147 0 0.20246-0.13722 0.144-0.67703-0.28849zm-17.992-0.76456c0.28247-0.22631 0.62974-0.41147 0.7717-0.41147 0.33617 0 0.18607 0.12221-0.62383 0.50792-0.6237 0.29703-0.63214 0.29153-0.14787-0.09645zm18.521-0.29378c-0.49319-0.39513-0.48994-0.40001 0.0817-0.12298 0.32743 0.15867 0.59532 0.34383 0.59532 0.41147 0 0.20246-0.13722 0.144-0.67704-0.28849zm-16.521-0.64686c0.21828-0.14106 0.57547-0.24994 0.79375-0.24194 0.26169 0.0096 0.21663 0.092-0.13229 0.24194-0.72736 0.31256-1.1451 0.31256-0.66146 0zm10.798-0.44532c0.19099-0.07643 0.4192-0.06703 0.50712 0.02089 0.0879 0.08792-0.0684 0.15045-0.34727 0.13896-0.30823-0.01269-0.37092-0.07539-0.15985-0.15985zm-8.4832-0.25907c0.1819-0.0734 0.47955-0.0734 0.66145 0s0.0331 0.13345-0.33073 0.13345c-0.3638 0-0.51263-0.06005-0.33072-0.13345zm7.4249-0.0055c0.191-0.07643 0.4192-0.06703 0.50712 0.02089 0.0879 0.08792-0.0684 0.15045-0.34726 0.13896-0.30823-0.0127-0.37092-0.07539-0.15986-0.15985zm-5.5697-0.27097c0.32912-0.06329 0.80537-0.06088 1.0583 0.0053 0.25296 0.06622-0.0163 0.118-0.5984 0.11507-0.58208-0.0029-0.78905-0.05712-0.45994-0.12041zm3.1719 3.97e-4c0.32742-0.06306 0.8632-0.06306 1.1906 0 0.32743 0.06306 0.0595 0.11466-0.59531 0.11466-0.65484 0-0.92273-0.0516-0.59531-0.11466z"/>
<path d="m378.02 40.652c-7.7596-1.2296-12.843-4.6574-15.64-10.547-2.2471-4.7311-2.5179-10.009-0.77115-15.031 0.89656-2.5781 2.1266-4.5275 4.1146-6.521 4.9388-4.9525 11.94-6.461 18.995-4.0928 6.7181 2.2552 10.277 7.2039 10.574 14.702l0.1218 3.0801 1.071 0.17126c1.3608 0.2176 1.532-0.04937 1.3446-2.0963-0.21309-2.3273-1.055-5.297-2.1095-7.4404-1.3841-2.8135-3.0936-4.7635-5.7436-6.5515-1.2725-0.85863-2.2588-1.616-2.1917-1.6831 0.3375-0.3375 3.181 1.6292 5.0635 3.5022 1.7 1.6914 2.3532 2.5807 3.25 4.4242 1.4041 2.8865 2.163 5.8051 2.163 8.3183v1.9421h1.069c0.65351 0 1.3477-0.20562 1.7859-0.52901 0.71689-0.52901 0.71689-0.52901 3.6273 0.0075 1.6007 0.29507 3.1485 0.63511 3.4396 0.75564 0.48934 0.20265 0.46336 0.25929-0.34511 0.75244-0.69792 0.42573-0.78695 0.56681-0.44138 0.69942 0.8699 0.33381 1.2806 0.13587 2.9414-1.4178 3.1285-2.9266 3.8857-2.5044 5.255 2.9297 0.38185 1.5154 0.85914 2.9236 1.0606 3.1294 0.49588 0.50643 0.82333 0.21151 2.7902-2.513 2.4394-3.379 3.7817-4.2327 4.8315-3.0726 0.23743 0.26236 1.0261 1.7371 1.7525 3.2771 1.7154 3.6366 2.3907 4.4479 3.7025 4.4479 1.0585 0 1.956-0.54659 4.8636-2.9622 0.84708-0.70374 2.0032-1.5158 2.5691-1.8045 1.1201-0.57143 2.9746-0.68551 4.1123-0.25297 1.1445 0.43515 0.52895 0.6109-0.92121 0.26301-1.2236-0.29354-1.4363-0.2674-2.7263 0.33507-0.7695 0.3594-2.0397 1.2086-2.8228 1.8872-2.3494 2.0359-3.7143 2.8616-4.9629 3.0023-1.0579 0.11924-1.2343 0.05017-2.0324-0.79611-0.48068-0.50968-1.3429-2.0174-1.916-3.3504-2.1638-5.033-2.809-5.1218-5.9699-0.82244-1.1691 1.5901-2.3766 2.9709-2.6835 3.0683-0.84915 0.26951-1.3703-0.59597-2.0371-3.383-0.7937-3.3174-1.4172-4.7092-2.1095-4.7092-0.29965 0-1.3827 0.77066-2.417 1.7198-1.2071 1.1078-2.0976 1.7198-2.5023 1.7198-0.6199 0-0.62234 0.0104-0.18257 0.77667 0.24517 0.42717 0.3849 0.83752 0.31053 0.91189-0.21061 0.21061-6.612-1.1031-7.0183-1.4403-0.19895-0.16511-0.50435-0.69464-0.67868-1.1767-0.26999-0.74666-0.46252-0.89041-1.2994-0.97022l-0.98242-0.09369-0.33145 1.8547c-1.4212 7.9527-5.8248 13.298-12.443 15.103-1.4873 0.40567-6.1236 0.69904-7.5286 0.47639zm6.6146-0.75824c4.562-0.95782 8.756-4.2331 10.807-8.4396 0.96915-1.988 2.2902-6.4307 2.2902-7.7019 0-0.6284-0.58327-0.9126-1.8868-0.91936-0.61071-0.0032-0.73501 0.1507-1.0123 1.2532-1.1204 4.4543-5.4636 8.4505-10.298 9.4752-6.5812 1.395-13.312-1.4485-15.654-6.6128-1.8468-4.0731-1.5934-9.302 0.61775-12.746 4.0833-6.3602 14.272-7.54 19.066-2.2077 2.0084 2.2338 2.4196 3.3642 2.4196 6.651v2.8278l1.6092 0.28108c0.88505 0.1546 1.7482 0.28108 1.9182 0.28108 0.45151 0 0.39059-4.5158-0.0883-6.547-1.3014-5.5195-5.2595-9.4195-11.244-11.079-2.6634-0.7386-7.5155-0.68091-9.9219 0.11796-4.4701 1.484-8.4482 4.7865-10.277 8.5321-4.0122 8.2157-1.7887 18.291 5.1668 23.411 4.1493 3.0545 11.236 4.526 16.488 3.4234zm0.21082-6.8751c2.3514-0.61245 4.6451-1.9058 6.2744-3.5379 1.56-1.5627 3.0695-4.2265 3.3402-5.8944 0.17117-1.0548 0.14771-1.0692-2.3198-1.4249l-1.2258-0.17667-0.65527 1.4145c-1.4488 3.1274-4.1029 4.7822-7.9259 4.9418-3.9618 0.16544-6.2953-1.0911-7.867-4.2363-1.4456-2.8928-1.0471-6.0461 1.0353-8.1931 2.4195-2.4946 6.6792-2.7753 9.2123-0.60708 1.1974 1.0249 1.8017 2.7067 1.5464 4.3034l-0.16225 1.0146 1.6801 0.30957c2.7165 0.50054 2.7346 0.49451 2.9371-0.97793 0.21756-1.5818-0.16969-3.8016-0.95449-5.4712-1.9626-4.1751-7.2501-6.2759-12.614-5.0114-6.6793 1.5747-10.31 7.8437-8.6411 14.922 1.0241 4.3448 4.0812 7.3123 8.8526 8.5933 1.9051 0.51147 5.5847 0.52696 7.4869 0.03151zm-0.83327-5.2576c1.8201-0.42839 3.6252-1.452 4.6052-2.6114 0.69916-0.82719 1.8467-3.066 1.6618-3.2421-0.0485-0.04624-0.99606-0.23565-2.1056-0.42091l-2.0174-0.33682-1.0257 1.0783c-0.80959 0.85105-1.2863 1.1174-2.2623 1.2637-3.6193 0.54274-6.432-2.7804-4.7107-5.5655 0.54436-0.8808 2.1203-1.7125 3.2414-1.7106 0.8376 0.0013 2.2666 0.93776 2.6222 1.7182 0.16591 0.36414 0.47671 0.66207 0.69068 0.66207 0.29815 0 0.35328 0.22023 0.23603 0.94276-0.12812 0.78951-0.08 0.9289 0.29611 0.85752 0.6498-0.12334 0.74658-2.2983 0.1575-3.5396-0.93649-1.9735-4.0975-3.0121-6.8775-2.2597-6.4486 1.7453-5.5946 11.649 1.1412 13.235 1.4638 0.34469 2.6638 0.32505 4.3471-0.07115zm23.132-2.1595c-0.55243-0.84312-1.1016-1.0757-1.5877-0.67225-0.43642 0.3622-0.82667-0.06371-0.5172-0.56445 0.10763-0.17414-0.17162-0.05508-0.62054 0.26458-1.0028 0.71406-1.396 0.73569-1.396 0.07681 0-0.36751-0.13817-0.46826-0.50912-0.37126-0.39529 0.10337-0.52839-0.02363-0.59531-0.56804-0.0773-0.62846-0.13625-0.6643-0.56878-0.34559-0.41507 0.30584-0.4375 0.45455-0.16033 1.0629 0.27234 0.59772 0.61348 0.7704 2.2024 1.1148 3.4125 0.73969 3.9957 0.84886 4.0988 0.76724 0.0561-0.04443-0.0997-0.38856-0.34615-0.76472zm-1.8589-1.9784c0.18653 0 0.38667 0.14259 0.44477 0.31686 0.0801 0.24028 0.31957 0.22824 0.99085-0.04981 0.77719-0.32192 0.8235-0.39206 0.37945-0.57465-0.27818-0.11439-1.4046-0.37081-2.5032-0.56984l-1.9974-0.36186-0.058 0.76126c-0.0577 0.75746-0.0546 0.75905 0.61663 0.31922 0.79532-0.52111 1.1685-0.2955 0.71424 0.43184-0.49542 0.79328-0.38485 0.87416 0.37643 0.27534 0.38342-0.3016 0.84975-0.54837 1.0363-0.54837zm-21.41-0.96053c1.0952-0.51973 1.6523-1.3754 1.1165-1.7149-0.57928-0.36707-1.0192-0.26906-1.0236 0.22803-0.0109 1.2398-0.40561 1.2251-2.6122-0.09726-1.1813-0.70791-2.1078-1.4072-2.0589-1.554 0.0489-0.14681 0.99902-0.3932 2.1114-0.54754 1.1124-0.15434 2.0931-0.3511 2.1792-0.43726 0.25337-0.25336-0.46097-1.2052-1.135-1.5123-1.9778-0.90112-4.3013 0.53051-4.3013 2.6502 0 2.501 3.2129 4.1766 5.7238 2.985zm18.228-0.31129c-0.0815-0.08146-0.29496-1.69e-4 -0.47443 0.18065-0.25936 0.26131-0.22897 0.2917 0.14811 0.14811 0.26094-0.09936 0.40778-0.2473 0.32632-0.32877zm-18.414-2.3872c0.0173-0.82143-0.0305-0.87152-0.70901-0.74176-0.40018 0.07653-1.2444 0.21734-1.876 0.3129l-1.1484 0.17375 1.6775 1.0106c1.8512 1.1152 2.0176 1.054 2.0558-0.75544zm0.72299-0.64044c-0.0734-0.1819-0.13345-0.03307-0.13345 0.33073 0 0.3638 0.06 0.51263 0.13345 0.33073 0.0734-0.1819 0.0734-0.47956 0-0.66146z"/>
<path d="m377.49 40.53c-2.3597-0.33681-5.859-1.481-7.8052-2.5522-1.014-0.55808-2.6006-1.8248-3.8659-3.0865-1.718-1.7131-2.361-2.5885-3.2237-4.3889-2.4974-5.2118-2.78-10.359-0.85784-15.626 2.263-6.2006 7.6018-10.447 14.284-11.36 2.545-0.34788 4.5725-0.19473 7.4067 0.55942 7.565 2.013 11.9 7.7927 11.917 15.886l5e-3 2.2918 1.0486 0.17716c1.5577 0.26317 1.6854 0.08359 1.4817-2.0835-0.25695-2.7333-0.8421-4.7309-2.2148-7.5609-1.4152-2.9175-3.7363-5.4918-6.2025-6.8789-1.4806-0.83281-2.0711-1.3344-1.5709-1.3344 0.617 0 4.289 2.7047 5.552 4.0893 2.6682 2.9255 4.8164 8.4579 4.8164 12.404 0 1.7048 0 1.7048 0.93606 1.814 0.67061 0.07829 1.1771-0.05931 1.7859-0.48521l0.84987-0.59449 3.2405 0.60174c1.7823 0.33096 3.3138 0.67497 3.4033 0.76448 0.0895 0.08951-0.20745 0.38786-0.6599 0.66302-0.89818 0.54621-0.8344 0.85115 0.17803 0.85115 0.42907 0 1.2249-0.53801 2.343-1.5839 3.2826-3.0707 3.5897-2.8301 5.6501 4.4282 0.34653 1.2207 0.68064 1.9182 0.91885 1.9182 0.38906 0 1.0983-0.80647 3.2401-3.6842 1.6763-2.2523 2.4902-2.8469 3.4474-2.5186 0.59164 0.20289 1.03 0.86517 2.3383 3.5328 1.8166 3.7041 2.8517 4.8957 4.0198 4.6278 0.92981-0.21324 2.3352-1.1223 4.6674-3.0191 1.0303-0.83798 2.2544-1.7159 2.7201-1.9509 1.0242-0.51687 2.8339-0.53536 3.9157-0.03999 0.96782 0.44316 0.41962 0.51376-0.9058 0.11665-1.5513-0.46477-2.7743 0.03801-5.5807 2.2941-2.8421 2.2848-4.1254 3.0228-5.2566 3.0228-0.98694 0-2.1248-1.0971-2.9328-2.8277-2.0571-4.406-2.4759-5.1213-3.0887-5.2751-0.96541-0.2423-1.7416 0.43852-3.7839 3.319-1.9034 2.6846-2.6815 3.2892-3.36 2.6107-0.2065-0.2065-0.72364-1.7026-1.1492-3.3245-0.9205-3.5085-1.4103-4.5565-2.1296-4.5565-0.28857 0-1.2246 0.64349-2.0801 1.43-1.8245 1.6773-2.5426 2.1055-3.23 1.9257-0.47812-0.12503-0.47599-0.09408 0.0438 0.63587 0.30049 0.42201 0.4827 0.8703 0.40489 0.99619-0.0778 0.12589-1.6428-0.07082-3.4778-0.43714-2.6533-0.52969-3.4089-0.77929-3.6908-1.2193-0.66292-1.0346-0.57704-1.542 0.37042-2.1886 0.49446-0.33747 0.77841-0.61359 0.63099-0.61359-0.14741 0-0.58938 0.25278-0.98214 0.56173-0.54644 0.42983-0.95341 0.52963-1.7332 0.42504l-1.0191-0.13669-0.29346 1.6852c-0.41662 2.3924-1.2596 4.9915-2.27 6.9993-3.2756 6.5088-10.259 9.8358-18.251 8.6951zm7.1438-0.63608c4.074-0.85534 8.097-3.7194 10.187-7.2521 1.2053-2.0375 2.5538-5.8974 2.804-8.0264 0.16717-1.4224 0.14543-1.5004-0.45455-1.632-1.9101-0.41876-1.9112-0.41809-2.5191 1.4971-1.3346 4.2044-4.6763 7.4606-9.0649 8.8329-1.9591 0.61261-5.4408 0.73948-7.6086 0.27724-4.9346-1.0522-8.2898-3.8893-9.6762-8.182-0.7093-2.1961-0.75696-6.0568-0.10206-8.2677 1.6644-5.6189 7.607-9.2376 13.745-8.3696 3.9394 0.55711 6.6143 2.3731 8.18 5.5535 0.80018 1.6254 0.85988 1.9345 0.85988 4.4521 0 3.0437-0.18495 2.8025 2.4087 3.1407l1.3504 0.17603 0.15318-1.142c0.37955-2.8298-0.77713-7.6751-2.4572-10.293-1.8005-2.8058-5.2683-5.1717-9.1279-6.2274-2.393-0.65457-6.2319-0.78154-8.599-0.28439-2.9619 0.62206-6.0438 2.2541-8.2953 4.3928-3.4145 3.2434-5.137 7.1334-5.3906 12.174-0.50115 9.959 5.8216 17.597 15.977 19.302 2.0933 0.35134 5.6499 0.29501 7.6306-0.12085zm0.27514-6.8861c2.5049-0.64322 4.3637-1.6844 6.1068-3.4208 1.7007-1.6941 2.6815-3.3331 3.3569-5.6097l0.40515-1.3656-1.6541-0.28805c-2.1258-0.37019-2.5368-0.36264-2.5368 0.0466 0 0.63523-1.1129 2.4469-2.1823 3.5526-1.7276 1.7862-3.2518 2.3284-6.549 2.3295-2.5123 7.94e-4 -2.9084-0.06777-4.1404-0.71753-4.4933-2.3698-5.4734-9.0163-1.7807-12.075 2.6723-2.2138 7.4451-2.0166 9.3348 0.38573 0.74597 0.94835 1.1573 2.5939 0.95204 3.8088l-0.16865 0.99822 1.6934 0.2949c2.7562 0.47997 2.7818 0.47189 2.9943-0.94531 0.22407-1.4942-0.19646-3.9556-0.93722-5.4858-0.94296-1.9479-2.2763-3.2424-4.4424-4.3129-1.9938-0.98541-2.0658-0.99941-5.0789-0.98763-2.5382 0.0099-3.3139 0.11391-4.5749 0.61326-3.2279 1.2782-5.7366 3.6952-6.8089 6.5599-0.72351 1.933-0.98369 5.4898-0.55281 7.5573 0.93205 4.4723 4.3518 7.9425 8.9156 9.0472 2.0842 0.50448 5.7137 0.51151 7.648 0.01482zm0.86004-5.8132c1.7527-0.80162 2.7678-1.691 3.6234-3.1745 1.2005-2.0816 1.1764-2.1527-0.8473-2.4963-0.98707-0.16761-1.9934-0.36409-2.2364-0.43661-0.28428-0.08487-0.5028 0.06071-0.6132 0.40853-0.0943 0.29722-0.56124 0.83766-1.0376 1.201-3.2576 2.4847-8.3236-0.90944-6.6432-4.4508 0.48253-1.0169 2.147-2.0318 3.329-2.0299 0.90497 0.0013 2.3297 0.93312 2.6285 1.7189 0.13829 0.36374 0.44856 0.66134 0.68948 0.66134 0.35433 0 0.40881 0.18016 0.28505 0.94276-0.12812 0.78951-0.08 0.9289 0.29611 0.85752 0.33111-0.06285 0.47003-0.40855 0.52877-1.3158 0.18318-2.8293-1.5736-4.5104-4.8884-4.6778-1.6974-0.08571-2.1339-0.0063-3.4166 0.62119-5.3916 2.6379-4.1056 11.03 1.9526 12.743 1.8097 0.51153 4.5124 0.26792 6.3495-0.57232zm21.305-1.7034c-0.6984-0.97749-0.78095-1.0188-1.3263-0.6644-0.61554 0.40008-1.0622 0.10917-0.70925-0.46193 0.10763-0.17414-0.17162-0.05508-0.62054 0.26458-1.1217 0.79873-1.4964 0.75566-1.2737-0.1464 0.14489-0.58665 0.11456-0.66354-0.15653-0.39688-0.53698 0.52821-0.98225 0.38507-1.0727-0.34484-0.0748-0.60392-0.1349-0.63786-0.5663-0.31997-0.41851 0.30838-0.43884 0.45162-0.15308 1.0788 0.18123 0.39776 0.57699 0.7817 0.87946 0.8532 0.79285 0.18744 5.2725 1.1224 5.528 1.1538 0.11858 0.01455-0.11955-0.4426-0.52917-1.0159zm-1.7182-1.868c0.14731 0 0.31536 0.14259 0.37346 0.31686 0.0805 0.24149 0.30952 0.2324 0.96281-0.03819 1.1208-0.46425 0.82665-0.68237-1.4212-1.0539-1.0186-0.16835-2.0464-0.36402-2.2839-0.43483-0.31808-0.09483-0.46282 0.08243-0.54949 0.67294-0.13199 0.89931-0.0357 0.95374 0.70115 0.39639 0.66153-0.50036 1.042-0.49654 0.83764 0.0084-0.0883 0.21828-0.24194 0.5991-0.34136 0.84628-0.14748 0.36668-0.0304 0.34233 0.63616-0.13229 0.4493-0.31993 0.93744-0.58169 1.0848-0.58169zm-21.379-0.92878c0.99113-0.51254 1.5212-1.4254 1.0142-1.7466-0.57928-0.36707-1.0192-0.26906-1.0236 0.22803-0.0109 1.2434-0.40937 1.2342-2.5478-0.05885-1.1431-0.69122-2.128-1.3031-2.1886-1.3596-0.28034-0.2616 0.4142-0.48983 2.2771-0.7483 1.1388-0.15799 2.0698-0.42253 2.1307-0.60538 0.0595-0.17862-0.22832-0.63711-0.63953-1.0189-0.6511-0.60444-0.91651-0.67794-2.0549-0.56912-3.2098 0.30686-3.8434 4.0463-0.96816 5.7138 1.1332 0.65722 2.907 0.73035 4.0004 0.16492zm-0.27393-2.5861 4e-3 -1.0013-1.3891 0.17961c-2.4507 0.31688-2.4936 0.41167-0.67178 1.4862 1.8286 1.0785 2.05 1.007 2.0568-0.66448zm0.87446-0.45391c0.0761-0.29104 0.0305-0.52917-0.10143-0.52917-0.1319 0-0.23982 0.23812-0.23982 0.52917 0 0.29104 0.0457 0.52917 0.10144 0.52917 0.0558 0 0.1637-0.23812 0.23981-0.52917z"/>
<path d="m377.76 40.539c-2.4671-0.32998-5.1222-1.1485-7.5404-2.3246-2.3844-1.1597-5.8-4.3802-7.1098-6.7039-4.6209-8.1976-2.8804-18.559 4.0669-24.211 1.4496-1.1793 4.4238-2.7586 6.0854-3.2314 6.0494-1.7212 13.098-0.09177 17.535 4.0532 2.8612 2.6734 4.5581 7.1482 4.5581 12.02 0 2.3005 0.0892 2.4108 1.9571 2.4197l0.76642 0.0036-0.16961-2.0065c-0.23974-2.8361-0.82243-4.9073-2.1524-7.6508-1.433-2.9559-3.2415-5.0101-5.9833-6.7959-2.4624-1.6039-2.6032-2.0449-0.1883-0.58999 4.9042 2.9546 8.2206 8.6727 8.6045 14.836l0.15092 2.4228 0.87987 0.10272c0.5788 0.06757 1.2028-0.09217 1.8236-0.46686 0.94376-0.56958 0.94376-0.56958 3.7791-0.07028 1.5594 0.27461 3.0727 0.59676 3.3628 0.71589 0.48306 0.19835 0.45447 0.25436-0.33938 0.66487-0.97963 0.50659-0.90501 0.95592 0.15824 0.95284 0.4999-0.0013 1.2871-0.51376 2.6426-1.7198 1.0618-0.94475 2.1093-1.7177 2.3277-1.7177 0.77678 0 1.6421 1.3423 2.1814 3.3838 0.2964 1.1221 0.66534 2.5164 0.81986 3.0985 0.64451 2.4278 1.1378 2.2677 3.6399-1.1811 3.3479-4.6148 3.9407-4.6015 6.2985 0.14099 1.7974 3.6154 2.1345 4.1325 2.9895 4.5863 0.96869 0.5141 2.1993-0.06393 5.0951-2.3932 3.5386-2.8463 4.9072-3.343 7.1029-2.5775 1.2148 0.42349 0.83278 0.5761-0.56259 0.22474-1.8488-0.46554-2.994-0.01087-5.9555 2.3646-2.9087 2.3331-3.9463 2.939-5.0183 2.9305-1.2468-0.0099-1.9291-0.83182-3.7512-4.5187-2.3898-4.8357-2.792-4.8628-6.0217-0.40593-3.0571 4.2187-3.3656 4.1226-4.852-1.5102-1.1075-4.1971-1.6081-4.4338-4.2398-2.0041-1.7324 1.5994-2.6014 2.0526-3.212 1.6752-0.18241-0.11274-0.0701 0.16232 0.24954 0.61125 0.73125 1.0269 0.72653 1.1314-0.0511 1.1314-0.67503 0-5.3036-0.9125-6.0049-1.1839-0.23075-0.08928-0.61331-0.56863-0.85012-1.0652-0.42276-0.88654-0.41811-0.91269 0.25681-1.4436 0.96301-0.7575 1.5036-0.70896 1.345 0.12077-0.1452 0.75957 0.0187 0.8199 0.74179 0.273 0.69457-0.52535 1.006-0.50233 0.78109 0.05773-0.10228 0.25466-0.25589 0.63548-0.34135 0.84628-0.10133 0.24996 0.12874 0.18095 0.66154-0.19844 0.8772-0.62464 1.3967-0.74258 1.3967-0.31712 0 0.37989 0.84302 0.3107 1.4049-0.1153 0.63124-0.4786 0.49614-0.53575-2.5495-1.0786-2.5998-0.46336-2.5998-0.46336-3.4043 0.13138-0.62082 0.45899-1.0373 0.5635-1.8248 0.45787-1.0017-0.13435-1.0234-0.11912-1.18 0.82919-1.6936 10.254-7.3995 16.011-16.403 16.548-1.1578 0.06916-2.9385 0.01426-3.9571-0.12197zm8.4072-1.0006c3.8108-1.3599 6.8264-3.7801 8.7837-7.0493 1.0866-1.815 2.4344-5.7908 2.6846-7.9195 0.16528-1.4063 0.15019-1.452-0.52611-1.5939-2.0217-0.42413-1.836-0.53973-2.5033 1.558-1.4665 4.6094-5.2759 7.9636-10.231 9.0086-3.3767 0.7121-6.651 0.31983-9.8583-1.1811-3.9348-1.8413-6.0424-4.7847-6.6886-9.3407-0.80754-5.6939 1.7699-10.709 6.6965-13.029 5.332-2.5115 11.769-1.2819 14.737 2.8149 1.3943 1.9248 1.9171 3.7626 1.8166 6.386l-0.0887 2.3157 0.92604 0.15953c0.50932 0.08774 1.3634 0.25137 1.8979 0.36362 0.97185 0.2041 0.97185 0.2041 1.1432-1.0416 0.21308-1.5492-0.2516-5.0677-0.92949-7.038-2.0529-5.967-7.5367-9.7359-14.704-10.106-5.2527-0.271-9.5159 1.3622-13.234 5.07-3.72 3.7094-5.3345 8.1023-5.0552 13.754 0.25121 5.0826 1.7462 8.599 5.0797 11.949 2.8268 2.8404 5.7283 4.3472 10.191 5.2927 2.534 0.53683 7.8796 0.33471 9.8624-0.37289zm-1.1658-6.5098c3.6124-0.96148 6.6974-3.3485 8.3213-6.4388 0.52118-0.9918 1.0578-2.2939 1.1926-2.8935 0.27947-1.2438 0.27472-1.2469-2.3465-1.5393l-1.4442-0.1611-0.62536 1.4692c-0.72517 1.7037-2.3966 3.3727-4.223 4.2168-1.0193 0.47108-1.7262 0.57174-4.0152 0.57174-2.585 0-2.8766-0.05457-4.1951-0.78485-2.7102-1.5011-4.1546-4.1851-3.9386-7.3188 0.21871-3.1726 2.1319-5.4373 5.117-6.057 4.424-0.91843 7.9642 1.7308 7.3602 5.5079l-0.1659 1.0375 2.2107 0.40435c1.2159 0.22239 2.2702 0.34832 2.343 0.27985 0.0728-0.06847 0.13042-1.2159 0.12813-2.5498-4e-3 -2.0685-0.1082-2.6487-0.71124-3.9429-0.85479-1.8346-2.8058-3.8461-4.4992-4.6386-5.603-2.6223-13.14-0.4186-15.898 4.6483-1.9221 3.5315-2.0191 8.5002-0.23769 12.173 1.3117 2.7043 4.3873 5.0773 7.7538 5.9826 1.8505 0.49767 6.0624 0.51576 7.8731 0.03381zm0.35071-5.5722c1.6213-0.56543 3.5131-2.2522 4.3267-3.8577 0.35692-0.70434 0.64894-1.3902 0.64894-1.524 0-0.13388-0.80367-0.38649-1.7859-0.56136-0.98226-0.17487-1.9645-0.36501-2.1828-0.42254-0.23244-0.06127-0.58662 0.22772-0.85485 0.6975-0.97503 1.7077-4.0058 2.2788-5.8105 1.0949-2.0806-1.3649-2.6139-3.8065-1.1623-5.3216 1.656-1.7285 4.1684-1.6684 5.2265 0.12495 0.29527 0.50044 0.71926 0.90989 0.94221 0.90989 0.3155 0 0.37205 0.20528 0.25508 0.92604-0.12841 0.79135-0.0757 0.92604 0.36226 0.92604 0.79296 0 0.73424-2.7631-0.0849-3.9958-1.9459-2.9282-7.74-2.7668-9.9449 0.27701-2.8089 3.8776-0.77909 9.4549 4.0135 11.028 1.3652 0.4481 4.325 0.30077 6.0511-0.30122zm22.187-1.3856c-0.67059-1.1524-1.3552-1.741-1.6648-1.4314-0.47157 0.47157-1.0056 0.37808-0.8063-0.14116 0.14429-0.376 0.0208-0.35471-0.76714 0.13229-1.2158 0.75141-1.3683 0.7319-1.1512-0.14721 0.14489-0.58665 0.11456-0.66354-0.15653-0.39688-0.53698 0.52821-0.98225 0.38507-1.0727-0.34484-0.0748-0.60392-0.1349-0.63786-0.5663-0.31997-0.41605 0.30657-0.43788 0.45372-0.15829 1.0674 0.17837 0.39147 0.54119 0.7806 0.80628 0.86474 0.43939 0.13946 5.11 1.1054 5.5986 1.1578 0.11426 0.01228 0.0865-0.18606-0.0617-0.44072zm-23.588-3.3599c0.40772-0.21084 0.93551-0.67973 1.1729-1.042 0.4099-0.62559 0.40392-0.66739-0.11919-0.83342-0.43121-0.13686-0.52629-0.34139-0.43808-0.94241 0.20174-1.3745-0.24362-0.8077-0.48608 0.61864-0.15713 0.92435-0.37501 1.4128-0.65389 1.466-0.31966 0.06094-3.5411-1.65-4.1899-2.2253-0.28667-0.25419 0.42368-0.48603 2.2771-0.74318 1.1324-0.15712 2.0699-0.42286 2.1302-0.60383 0.0592-0.17777-0.20771-0.63855-0.59312-1.024-0.62224-0.62224-0.85238-0.68617-2.0544-0.57068-1.0953 0.10525-1.4954 0.2888-2.0969 0.96198-1.3418 1.5018-0.77385 3.9258 1.1409 4.8691 1.1074 0.54552 2.9269 0.57766 3.9104 0.06906zm-0.23491-2.418 0.18498-1.2189-1.4601 0.18242c-2.5768 0.32195-2.6328 0.42931-0.79021 1.516 0.90628 0.53452 1.7001 0.91954 1.764 0.85559 0.0639-0.06395 0.19952-0.66477 0.30126-1.3352z"/>
<path d="m378.28 40.56c-2.7464-0.3002-5.7744-1.21-8.1628-2.4526-7.629-3.969-11.328-13.362-8.7351-22.183 1.282-4.3622 4.7977-8.5456 8.8355-10.514 1.2369-0.60287 2.9633-1.2799 3.8365-1.5044 2.3142-0.59522 6.401-0.53811 8.9958 0.12573 7.8106 1.9982 12.143 7.4848 12.164 15.404 7e-3 2.8238 7e-3 2.8238 0.768 2.9766 0.41837 0.08402 1.0611 0.15276 1.4283 0.15276 0.6676 0 0.6676 0 0.50372-2.0505-0.34173-4.2759-2.256-8.9064-4.8285-11.68-0.75659-0.8157-2.2784-2.0723-3.3817-2.7924-2.3986-1.5655-2.4858-1.9444-0.12034-0.52287 4.8421 2.9098 8.2491 8.7749 8.6099 14.821l0.14509 2.4318 0.92664 0.15037c0.68456 0.11109 1.0989 0.01487 1.586-0.36829 0.80743-0.63512 1.6097-0.63915 4.7569-0.02387 2.3558 0.46055 3.171 0.78229 2.5493 1.0062-0.16126 0.05809-0.51014 0.26424-0.77529 0.45812-0.45966 0.33612-0.45476 0.36712 0.10541 0.66692 0.72266 0.38676 1.7399-0.17308 3.3443-1.8405 1.1508-1.196 2.0133-1.6531 2.6548-1.4069 0.61341 0.23539 1.3458 1.8533 1.9683 4.3485 1.1564 4.6351 1.3812 4.6949 3.9622 1.0546 3.525-4.9716 4.0949-4.9393 6.7605 0.38354 2.1593 4.3117 2.5975 4.7041 4.4567 3.9906 0.60473-0.23209 2.2306-1.3339 3.613-2.4485 1.3824-1.1146 2.8967-2.1867 3.3649-2.3826 1.015-0.42443 2.4151-0.45902 3.4014-0.08403 1.0596 0.40286 0.67042 0.52646-0.59455 0.18882-1.6889-0.4508-2.8992 0.05586-5.9007 2.4702-2.6599 2.1395-3.9854 2.8898-5.1054 2.8898-0.99059 0-2.1815-1.5027-3.6095-4.5544-0.72954-1.5591-1.5662-3.0744-1.8592-3.3674-0.92639-0.9264-1.9075-0.22943-4.1527 2.95-1.5638 2.2145-2.5743 3.1676-3.1317 2.9537-0.47339-0.18166-0.80056-1.0415-1.5872-4.1712-0.36182-1.4396-0.84174-2.8981-1.0665-3.2411-0.51572-0.7871-1.3973-0.79815-2.2582-0.02832-0.36618 0.32742-1.2384 1.1132-1.9384 1.7463-0.94646 0.85602-1.4338 1.1201-1.9018 1.0307-0.62925-0.12029-0.62925-0.12029-0.0806 0.65021 0.30175 0.42378 0.4734 0.84574 0.38144 0.9377-0.092 0.09196-1.2658-0.04044-2.6086-0.29423-4.0411-0.76379-4.2772-0.85577-4.752-1.8514-0.24368-0.511-0.32819-0.99604-0.19652-1.1279 0.13185-0.13205-0.32966-0.23964-1.0751-0.25063-1.2958-0.0191-1.3074-0.0118-1.4684 0.92604-0.44531 2.5943-1.3065 5.4008-2.2793 7.4276-2.0101 4.1882-6.2302 7.6046-10.597 8.5792-2.2884 0.51068-4.7557 0.65965-6.9509 0.41969zm6.7044-0.66912c6.1618-1.4527 10.547-6.169 12.219-13.14 0.73567-3.0687 0.70778-3.6086-0.1963-3.7998-1.9623-0.41515-1.8355-0.46425-2.1635 0.83809-1.1008 4.3719-4.6555 8.039-9.1365 9.4255-2.4097 0.74563-6.4141 0.78955-8.7422 0.09588-4.7097-1.4032-7.93-4.5996-8.8749-8.809-0.38383-1.7098-0.37108-5.2009 0.0249-6.8306 1.6166-6.6524 9.1701-10.571 16.089-8.3464 4.5361 1.4585 7.0966 5.222 6.8748 10.105-0.10699 2.356-0.32967 2.1115 2.332 2.5605 1.3641 0.23015 1.3641 0.23015 1.5214-0.55602 0.45306-2.2653-0.31114-6.4821-1.6931-9.3426-3.9411-8.1574-16.322-10.929-24.523-5.4903-7.5161 4.9844-9.9606 15.195-5.719 23.887 0.72907 1.4941 1.5145 2.5393 3.1067 4.1338 2.8376 2.8419 5.6612 4.3489 9.8038 5.2328 2.431 0.51866 6.9565 0.53699 9.0783 0.03677zm0.13096-6.8723c3.1097-0.80997 6.1249-2.9827 7.8103-5.6278 0.75327-1.1823 2.0396-4.5076 1.8262-4.7209-0.0541-0.05409-0.95445-0.26023-2.0008-0.45808l-1.9024-0.35973-0.69408 1.5466c-1.368 3.0482-3.964 4.69-7.7662 4.9113-2.7492 0.16006-4.8045-0.49491-6.3254-2.0158-1.6268-1.6268-2.2736-3.252-2.2736-5.7132 0-1.8368 0.097-2.2817 0.73351-3.3645 0.97344-1.656 2.1166-2.4825 4.1566-3.0051 2.0292-0.51985 4.0338-0.22874 5.6107 0.81477 1.3808 0.91379 1.8938 2.0229 1.8654 4.0334-0.0129 0.9095 0.0168 1.6536 0.0659 1.6536s1.0141 0.17697 2.1446 0.39326c1.1304 0.21629 2.1232 0.32527 2.2061 0.24218 0.0829-0.08309 0.14795-1.2423 0.14457-2.5761-5e-3 -2.0504-0.1129-2.6547-0.69722-3.912-1.7485-3.7623-5.1725-5.7973-9.7295-5.7826-3.5387 0.01143-6.1915 1.0005-8.6121 3.211-2.402 2.1935-3.5706 5.0804-3.5706 8.821 0 6.0676 3.2414 10.329 9.044 11.891 1.8679 0.50278 6.0651 0.51183 7.9642 0.0172zm-0.7426-5.2558c1.8944-0.50482 2.7956-1.0325 3.9843-2.3329 1.0032-1.0974 2.1875-3.2632 1.9269-3.5238-0.0686-0.06857-1.0652-0.30462-2.2148-0.52457-1.9427-0.3717-2.1079-0.36801-2.3431 0.05224-1.7461 3.1201-6.7054 2.5719-7.8402-0.86662-0.38173-1.1566-0.20053-1.9508 0.68525-3.0035 1.4292-1.6984 4.1521-1.6271 5.1924 0.13604 0.29105 0.4933 0.70927 0.8969 0.92937 0.8969 0.31406 0 0.3628 0.19931 0.22646 0.92604-0.15254 0.81312-0.10774 0.92604 0.36743 0.92604 0.4835 0 0.54115-0.16496 0.54115-1.5484 0-1.1655-0.14771-1.7706-0.59744-2.4474-1.6512-2.4847-6.4403-2.857-9.0526-0.70372-1.484 1.2233-2.1068 2.6507-2.116 4.8505-0.0139 3.3185 1.8371 5.9486 4.9412 7.0207 1.6667 0.57569 3.5557 0.62577 5.3697 0.14238zm23.165-1.6917c-0.67059-1.1524-1.3552-1.741-1.6648-1.4314-0.47157 0.47157-1.0056 0.37808-0.8063-0.14116 0.14343-0.37376 0.0138-0.35038-0.7811 0.14092-0.98323 0.60767-1.3916 0.459-1.0892-0.39656 0.14084-0.39846 0.10735-0.42682-0.18435-0.15617-0.67261 0.6241-1.1245 0.40087-0.95046-0.46948 0.14535-0.72675 0.11331-0.7752-0.34906-0.52774-0.74887 0.40078-0.84524 0.68155-0.49658 1.4468 0.33065 0.7257 0.45048 0.77276 3.7944 1.49 2.8254 0.60603 2.8542 0.60654 2.5273 0.04483zm-2.791-2.1842c0.26055-0.42157 1.0016-0.31482 0.83465 0.12024-0.10305 0.26856-0.0125 0.34062 0.30243 0.24059 0.80442-0.25554 1.6402-0.70931 1.6402-0.89053 0-0.09741-1.2328-0.38843-2.7396-0.64669-2.1798-0.37363-2.8602-0.40502-3.33-0.15361-0.32471 0.17378-0.51868 0.38768-0.43103 0.47533 0.0876 0.08765 0.30026 0.01847 0.47246-0.15373 0.62011-0.62012 1.0783-0.36898 0.90529 0.49618l-0.16185 0.80927 0.80547-0.57355c0.90908-0.64732 1.2204-0.55433 0.79645 0.23788-0.15731 0.29394-0.28602 0.60598-0.28602 0.69343 0 0.2165 0.98888-0.32695 1.1915-0.6548zm-20.589-1.3083c0.46366-0.28271 0.96958-0.75052 1.1243-1.0396 0.23347-0.43624 0.18624-0.55572-0.27787-0.70302-0.46749-0.14838-0.53523-0.32476-0.41331-1.0761 0.0802-0.49425 0.048-0.89864-0.0716-0.89864-0.11961 0-0.3002 0.66222-0.40133 1.4716-0.10967 0.87781-0.33334 1.529-0.55431 1.6138-0.36182 0.13885-4.3402-1.9929-4.3466-2.3291-4e-3 -0.2284 0.85499-0.42258 2.841-0.64197 1.8586-0.20531 2.0613-0.5245 1.0042-1.5816-0.98832-0.98833-2.7364-0.91274-3.9716 0.17172-0.77388 0.67947-0.93525 1.0013-0.93525 1.8652 0 2.2232 1.5071 3.6616 3.8365 3.6616 0.84424 0 1.6279-0.18599 2.1659-0.51402zm-0.59074-1.1376c0.0569-0.1819 0.18035-0.79195 0.27442-1.3557l0.17104-1.0249-1.5395 0.18076c-2.6805 0.31474-2.7071 0.35514-0.97651 1.4795 1.7358 1.1277 1.9229 1.1928 2.0705 0.72032z"/>
<path d="m377.23 40.43c-0.14552-0.04667-1.1576-0.28477-2.249-0.5291-8.6495-1.9364-14.299-9.1126-14.315-18.182-6e-3 -3.4287 0.48114-5.6088 1.9383-8.6792 2.019-4.2543 6.5832-7.8952 11.44-9.1255 2.2843-0.57871 6.4655-0.51876 9.0302 0.12946 5.8484 1.4782 9.6876 4.9053 11.389 10.166 0.56159 1.7368 0.69742 2.6913 0.72477 5.0929 0.0337 2.9555 0.0337 2.9555 0.79435 3.1089 1.8657 0.3761 2.0179 0.28267 2.0128-1.2357-0.01-3.0086-1.3219-7.1452-3.2256-10.171-1.2303-1.9551-3.586-4.2022-5.6336-5.3737-0.81748-0.46772-1.4283-0.90844-1.3573-0.97939 0.174-0.174 3.5023 1.9954 4.786 3.1195 1.3111 1.1481 3.3099 4.1973 4.186 6.3859 0.84373 2.1076 1.5138 5.284 1.5138 7.1763 0 1.4347 2e-3 1.4372 0.93274 1.6119 0.71295 0.13375 1.1122 0.04717 1.6945-0.36743 0.9161-0.65232 1.5298-0.65744 4.7189-0.0394 2.3587 0.4571 3.1682 0.77426 2.5471 0.99796-0.16126 0.05809-0.51014 0.26424-0.77529 0.45812-0.46036 0.33662-0.4562 0.36635 0.0924 0.65995 0.74476 0.39858 1.6496-0.05802 3.0928-1.5607 2.715-2.8269 3.6152-2.3048 4.8915 2.8369 1.1225 4.5222 1.3139 4.5555 4.112 0.71594 1.3994-1.9202 2.3291-2.9357 2.9655-3.2392 0.9271-0.4421 0.9271-0.4421 1.7949 0.56179 0.47728 0.55214 1.2464 1.9205 1.7091 3.0408 1.077 2.6076 2.084 4.081 3.0121 4.4074 0.97371 0.34244 2.8008-0.60793 5.3274-2.7711 2.977-2.5488 4.7459-3.145 6.6146-2.2293 0.43656 0.21391 0.55562 0.31587 0.26458 0.22658-2.3809-0.73048-3.6542-0.27691-7.136 2.5419-4.7338 3.8325-5.6266 3.6185-8.3237-1.9951-1.7655-3.6746-2.3003-4.2018-3.425-3.376-0.38201 0.28049-1.2639 1.2749-1.9597 2.2098-2.2293 2.9953-2.8553 3.6842-3.3476 3.6842-0.76861 0-1.0587-0.56971-1.8757-3.6837-0.85684-3.2659-1.1111-3.8605-1.8111-4.2351-0.58925-0.31536-1.1536 0.03465-3.2842 2.0368-1.2845 1.207-1.639 1.4099-2.212 1.2661l-0.68242-0.17128 0.57997 0.93842c0.56498 0.91416 0.56649 0.93842 0.0584 0.93842-0.50519 0-5.3143-0.93669-6.1545-1.1988-0.53471-0.16677-1.3396-1.8353-1.0332-2.1417 0.13211-0.1321-0.30215-0.23517-1.0122-0.24022-1.3649-0.0097-1.6303 0.19076-1.6364 1.236-7e-3 1.1783-1.3021 5.279-2.3285 7.3718-1.938 3.9515-6.0226 7.193-10.497 8.3304-1.3838 0.35176-7.0922 0.54871-7.948 0.27422zm9.3612-0.99539c5.9817-2.1476 9.9993-7.5101 11.099-14.814 0.2513-1.6696 0.31921-1.5874-1.5755-1.9058-0.95713-0.16085-0.96001-0.15843-1.2682 1.0653-0.87721 3.4837-3.6815 6.9096-6.9844 8.5326-5.3758 2.6416-12.391 1.7431-16.464-2.1086-2.6524-2.5086-3.7098-5.5006-3.5024-9.9111 0.20241-4.3052 1.7006-7.132 4.9303-9.3027 2.4872-1.6716 4.726-2.2664 8.0546-2.1399 2.3556 0.08957 2.9262 0.20915 4.4788 0.93856 2.134 1.0026 3.8601 2.6916 4.8862 4.7812 0.668 1.3603 0.74287 1.7872 0.74287 4.2361 0 2.5106 0.0413 2.7319 0.52917 2.8323 2.3173 0.47734 3.1871 0.60556 3.3039 0.48706 0.0746-0.07568 0.12326-1.2877 0.1081-2.6933-0.0663-6.1478-2.8183-10.953-7.722-13.482-3.3276-1.7163-4.6888-2.026-8.9192-2.0296-3.3566-0.0028-3.8863 0.06311-5.6448 0.70282-2.6459 0.96254-4.5782 2.1658-6.5047 4.0507-1.986 1.9431-3.3239 4.0951-4.2785 6.8817-0.96991 2.8314-1.2021 7.6512-0.50712 10.529 2.2037 9.1243 9.5193 14.33 19.845 14.121 2.943-0.05951 3.7215-0.17077 5.3924-0.77066zm-1.3027-6.4637c0.79415-0.21915 2.0379-0.69944 2.7638-1.0673 1.6132-0.81748 4.2111-3.2493 5.1108-4.784 0.70852-1.2087 1.7595-4.2804 1.5397-4.5002-0.0725-0.07245-0.96708-0.27502-1.9881-0.45015l-1.8563-0.31842-0.63225 1.381c-0.90556 1.978-2.279 3.3714-4.1956 4.2565-1.4591 0.67384-1.9567 0.76514-4.1703 0.76514-2.104 0-2.7194-0.10135-3.7766-0.62196-4.2626-2.099-5.7337-7.6848-2.9761-11.3 2.2981-3.0129 8.332-3.1058 10.334-0.15905 0.53227 0.78332 0.65177 1.284 0.65177 2.7311v1.7719l1.5214 0.29639c0.83675 0.16301 1.8419 0.35799 2.2337 0.4333 0.64645 0.12425 0.7291 0.04733 0.89409-0.8321 0.81182-4.3274-1.8364-9.1353-5.9187-10.745-2.258-0.89054-6.2297-0.99722-8.528-0.22905-3.4638 1.1577-6.3112 3.7245-7.445 6.7112-0.52962 1.3952-0.61534 2.0928-0.60608 4.9323 0.012 3.675 0.34532 4.9094 1.959 7.2549 2.8084 4.0819 9.41 6.0399 15.085 4.474zm0.59216-5.7215c2.0784-0.97625 3.8908-2.9592 4.3206-4.7271 0.18505-0.76114 0.40881-0.67178-3.5946-1.4356-0.52665-0.10049-0.75735 0.01987-1.036 0.54046-1.1287 2.109-4.6587 2.4385-6.5498 0.61136-1.7239-1.6657-1.6949-3.776 0.0704-5.1225 1.6006-1.2209 4.3895-0.72477 4.7851 0.85119 0.10048 0.40036 0.35049 0.62899 0.6878 0.62899 0.45887 0 0.5074 0.12005 0.36196 0.89534-0.12172 0.64884-0.0641 0.9352 0.20927 1.0401 0.58098 0.22295 0.69355-0.04906 0.69355-1.6758 0-2.8542-1.9565-4.5346-5.2674-4.5241-4.0672 0.01286-6.4901 2.3451-6.4916 6.2489-1e-3 3.6444 2.0894 6.403 5.5412 7.3113 1.5159 0.39891 4.7601 0.06642 6.2694-0.64253zm21.898-0.91411c-6e-3 -0.10914-0.36244-0.60986-0.79228-1.1127-0.60986-0.71345-0.85159-0.84422-1.1005-0.59531-0.43974 0.43974-0.7423 0.39919-0.7423-0.09948 0-0.35409-0.13923-0.33241-0.9051 0.14092-0.94073 0.58141-1.3396 0.41813-1.0412-0.4262 0.14084-0.39846 0.10735-0.42682-0.18435-0.15617-0.67261 0.6241-1.1245 0.40087-0.95046-0.46948 0.14809-0.74043 0.11979-0.77867-0.37874-0.51186-0.75178 0.40234-0.9001 0.954-0.44199 1.644 0.30894 0.46529 0.96777 0.7085 3.1386 1.1586 3.2082 0.66523 3.4126 0.69095 3.3983 0.42771zm-3.0311-2.4488c0.26405-0.42725 0.92657-0.3101 0.75626 0.13372-0.19137 0.4987-0.0889 0.49576 1.2392-0.03564 0.59453-0.23788 0.98389-0.52345 0.86525-0.63458-0.11865-0.11114-1.4968-0.41708-3.0626-0.67987-2.6822-0.45016-2.873-0.45171-3.2978-0.02687-0.25719 0.25719-0.3196 0.45092-0.14525 0.45092 0.16811 0 0.37924-0.11906 0.46918-0.26458 0.0899-0.14552 0.34997-0.26458 0.57786-0.26458 0.32 0 0.37789 0.18218 0.25429 0.80021-0.14535 0.72675-0.11331 0.7752 0.34906 0.52774 0.28001-0.14986 0.5823-0.39089 0.67175-0.53563 0.25882-0.41876 0.73397-0.30462 0.5566 0.13372-0.53309 1.3174-0.53561 1.2683 0.0491 0.9554 0.305-0.16323 0.62774-0.41521 0.71719-0.55995zm-19.903-1.8693c0.74827-0.81484 0.75329-1.3043 0.0134-1.3043-0.32608 0-0.37491-0.19081-0.23698-0.92604 0.0959-0.51108 0.0651-0.92604-0.0688-0.92604-0.13337 0-0.31928 0.56555-0.41315 1.2568-0.0939 0.69122-0.27927 1.4286-0.41201 1.6386-0.29141 0.46103-0.77614 0.27229-3.0712-1.1958-1.521-0.97297-1.546-1.0074-0.86288-1.1901 0.38691-0.10348 1.4271-0.27212 2.3114-0.37476 1.3135-0.15245 1.608-0.27525 1.608-0.67061 0-1.3403-2.6889-2.0541-4.2544-1.1293-2.5829 1.5257-1.4967 5.2042 1.7408 5.8954 1.2738 0.27196 2.8312-0.18671 3.6457-1.0737zm-1.3106-0.4444c0.0646-0.10914 0.2037-0.71972 0.30919-1.3568l0.1918-1.1584-1.8149 0.18935c-0.99821 0.10414-1.9108 0.28076-2.028 0.39247-0.11716 0.11172 0.47815 0.62692 1.3229 1.1449 1.662 1.0191 1.8412 1.0891 2.019 0.78852z"/>
<path d="m378.36 40.365c0.47555-0.05889 1.1899-0.05767 1.5875 0.0027 0.39758 0.06037 9e-3 0.10855-0.86463 0.10707-0.87313-0.0016-1.1984-0.05088-0.72287-0.10976zm3.3026 0.0021c0.40018-0.06062 1.055-0.06062 1.4552 0 0.40019 0.06062 0.0728 0.11022-0.7276 0.11022-0.80036 0-1.1278-0.0496-0.7276-0.11022zm-5.2866-0.25843c0.25743-0.06708 0.61461-0.06267 0.79375 0.0098 0.17913 0.07248-0.0315 0.12736-0.46806 0.12197-0.43656-0.0054-0.58313-0.06469-0.32569-0.13177zm7.8002 0.0081c0.1819-0.0734 0.47956-0.0734 0.66146 0s0.0331 0.13345-0.33073 0.13345c-0.3638 0-0.51263-0.06005-0.33073-0.13345zm-10.864-0.66697c-2.2181-0.77283-1.7146-0.84129 0.62294-0.08472 1.0853 0.35126 1.7352 0.63459 1.4441 0.62961-0.29104-5e-3 -1.2212-0.25018-2.067-0.54489zm13.464-0.02484c5.2791-2.0379 8.4563-5.7078 10.279-11.873 0.35914-1.2149 0.65932-2.0131 0.66707-1.7738 0.0451 1.3949-1.8609 6.022-3.4053 8.2667-1.7077 2.482-5.8422 5.3776-8.3546 5.8511-0.43657 0.08228-0.0702-0.1297 0.81406-0.47107zm-17.357-1.711c-2.3899-1.3814-5.1924-4.2612-6.4118-6.5888-0.54481-1.0399-0.98786-1.9924-0.98456-2.1167 3e-3 -0.12424 0.41036 0.52439 0.90456 1.4414 1.8714 3.4724 3.9719 5.6131 7.3173 7.4571 0.78616 0.43334 1.3076 0.79005 1.1588 0.79269-0.14883 0.0026-1.0418-0.44096-1.9844-0.98577zm11.317-3.947c0.18191-0.0734 0.47956-0.0734 0.66146 0s0.0331 0.13345-0.33073 0.13345c-0.3638 0-0.51263-0.06006-0.33073-0.13345zm-3.7197-0.48644c-4.4569-1.2252-8.217-4.9038-8.7892-8.5988-0.10114-0.65302 1e-3 -0.49701 0.3479 0.52917 0.63681 1.8861 0.98371 2.5297 2.1234 3.9392 1.6945 2.0958 4.7247 3.6726 8.1698 4.2514 1.0825 0.18186 1.1342 0.21489 0.34643 0.22124-0.50932 0.0041-1.4986-0.14993-2.1983-0.3423zm6.0348 0.21252c2.8151-0.37337 6.0225-1.8579 7.8992-3.6561 1.5264-1.4626 2.4526-2.8718 3.2535-4.9505 0.35173-0.9129 0.5714-1.3026 0.48817-0.86607-0.24523 1.2862-1.6233 3.8751-2.7667 5.1976-0.58434 0.67589-1.7019 1.6533-2.4835 2.1721-1.6557 1.099-5.0384 2.305-6.305 2.2479-0.87939-0.03964-0.87939-0.03964-0.0856-0.14492zm45.129-2.3551c-0.5092-0.42847-1.3728-1.8494-2.2914-3.7703-0.81079-1.6955-1.6726-3.3188-1.9151-3.6073-0.4217-0.50174-0.41894-0.50751 0.0632-0.13229 0.27728 0.21577 1.2013 1.8432 2.0535 3.6166 1.7642 3.6714 2.4858 4.4465 3.9246 4.2155 0.64449-0.10348 0.80543-0.07175 0.52924 0.10434-0.6845 0.43641-1.5171 0.28621-2.3641-0.42648zm3.2617-0.16687c0.27542-0.18487 1.466-1.1223 2.6458-2.0831 3.4498-2.8096 5.0485-3.3813 6.9076-2.4704 0.43656 0.21391 0.55562 0.31445 0.26458 0.22342-2.3988-0.7503-3.5687-0.35145-6.8997 2.3524-1.1528 0.93577-2.3938 1.8392-2.7576 2.0076-0.5596 0.25909-0.58434 0.25449-0.16069-0.02988zm-15.122-1.5695c-0.1802-0.1802-0.32402-0.45265-0.31959-0.60545 4e-3 -0.1528 0.1294-0.06945 0.27773 0.18521 0.49657 0.85256 1.2415 0.52292 2.3915-1.0583 2.5556-3.5138 3.046-4.1003 3.7257-4.4554 1.0905-0.56974 1.1905-0.44505 0.18456 0.23011-0.49447 0.33186-1.7982 1.7904-2.8972 3.2411-1.9707 2.6015-2.6941 3.1313-3.3627 2.4627zm-54.667-1.1581c-0.0907-0.23646-0.15743-0.56902-0.14821-0.73902 9e-3 -0.17 0.13084-0.02392 0.27027 0.32464 0.13942 0.34855 0.20611 0.68111 0.1482 0.73902-0.0579 0.05791-0.17953-0.08818-0.27026-0.32464zm19.348-0.04888c0.47294-0.05869 1.2468-0.05869 1.7198 0s0.086 0.10672-0.8599 0.10672c-0.94588 0-1.3328-0.04802-0.85989-0.10672zm34.103-2.5187c-0.38928-1.4926-0.9476-3.0413-1.2407-3.4415-0.29311-0.40018-0.42092-0.7276-0.28402-0.7276 0.40272 0 1.2803 2.0818 1.8811 4.4624 0.30724 1.2174 0.512 2.2601 0.45503 2.317-0.057 0.05697-0.42208-1.1177-0.81136-2.6103zm-36.853 2.0627c-1.2894-0.56106-2.9784-2.2293-3.7014-3.656-1.7831-3.5188-0.61703-7.6955 2.5955-9.2964 0.75916-0.37831 1.6843-0.67588 2.056-0.66126 0.52417 0.02061 0.45127 0.07942-0.32513 0.26224-3.2774 0.77174-5.2733 3.7086-4.8648 7.1582 0.31732 2.6793 2.5106 5.4232 4.9314 6.1695 0.6593 0.20324 0.9606 0.37316 0.66956 0.3776-0.29105 0.0044-0.90358-0.15484-1.3612-0.35396zm6.4449-0.0011c2.6029-0.81348 4.6211-2.6533 5.418-4.9393 0.22511-0.64575 0.20797-0.86818-0.081-1.0512-0.29701-0.1881-0.28457-0.23289 0.0656-0.23617 0.53593-5e-3 0.75018-0.76228 0.75486-2.668 0.0108-4.3954-2.7067-8.0411-7.0078-9.4014-0.58208-0.18409-0.82021-0.34151-0.52917-0.34982 0.29104-0.0083 1.153 0.27534 1.9156 0.63035 3.9849 1.8552 6.0558 5.357 5.8495 9.8914-0.0921 2.0256-0.0921 2.0256 0.70161 2.1931 0.72293 0.15248 0.70976 0.16124-0.14769 0.09813-0.90056-0.06628-0.96044-0.0158-1.3788 1.162-0.24052 0.67719-0.86098 1.7262-1.3788 2.3312-0.97891 1.1436-3.7723 2.737-4.7438 2.7059-0.31126-0.0099-0.0656-0.17004 0.56189-0.36614zm-23.715-2.0104c-0.15758-0.73477-0.2709-1.7766-0.25182-2.3151 0.0282-0.7954 0.0706-0.70606 0.2258 0.47604 0.10511 0.80036 0.27756 1.8422 0.38321 2.3151 0.10565 0.47294 0.13297 0.8599 0.0607 0.8599-0.0723 0-0.26031-0.60117-0.41789-1.3359zm46.346 0.88893c0.61829-0.16158 0.58241-0.31842-0.32148-1.4051-0.61758-0.74247-0.83645-0.86048-1.1041-0.59531-0.4484 0.4442-0.75719 0.41722-0.75719-0.06615 0-0.21828-0.10449-0.39688-0.23219-0.39688s-0.38041 0.17859-0.56156 0.39688c-0.18116 0.21828-0.56095 0.39688-0.84398 0.39688-0.40125 0-0.47602-0.12156-0.33944-0.55188 0.15487-0.48796 0.11298-0.5186-0.36165-0.26458-0.81021 0.43361-0.91686 0.35992-0.74229-0.51292 0.14809-0.74043 0.11979-0.77867-0.37874-0.51186-0.29634 0.15859-0.60469 0.46008-0.68523 0.66996-0.2187 0.56992 0.63553 1.7004 1.2849 1.7004 0.31194 0 0.49333 0.07383 0.40309 0.16407-0.0902 0.09024-0.45219 0.09175-0.80435 0.0034-0.69475-0.17437-1.3969-1.4843-1.146-2.1381 0.11464-0.29876-0.0205-0.37134-0.56518-0.30349-0.39373 0.04905-0.53727 0.03111-0.31899-0.03986s0.72358-0.36085 1.1229-0.64419c0.47778-0.33902 1.0206-0.47863 1.5875-0.40832 0.86148 0.10683 0.86148 0.10683-0.0983 0.14917-0.53724 0.02371-1.1196 0.23888-1.3229 0.48876-0.38554 0.47396-0.41364 0.4765 0.98953-0.08926 0.3603-0.14527 0.39737-0.03882 0.23845 0.68476-0.1762 0.80223-0.15377 0.83835 0.35239 0.56747 0.29732-0.15912 0.61376-0.40773 0.70321-0.55247 0.39975-0.64681 0.63147-0.18058 0.26371 0.53059-0.48597 0.93976-0.35897 0.977 0.82866 0.243 0.75678-0.46771 0.89113-0.48766 0.89113-0.13229 0 0.23015 0.0634 0.41845 0.14079 0.41845 0.38472 0 2.114-0.85374 2.283-1.1271 0.10632-0.17204 0.28909-0.21065 0.40614-0.0858 0.11706 0.12485 0.0809 0.27452-0.0804 0.33261-0.16126 0.05809-0.51064 0.2646-0.7764 0.45893-0.45408 0.33203-0.43641 0.37986 0.29321 0.79388 0.57756 0.32773 0.62394 0.39963 0.18108 0.28077-0.5939-0.15941-0.83307 0.22686-0.33215 0.53645 0.14474 0.08945 0.38706 0.39413 0.53848 0.67707 0.24323 0.45447 0.18942 0.51085-0.4616 0.48374-0.44743-0.01863-0.55503-0.07822-0.27389-0.15169zm-1.4552-0.25743c0.1819-0.0734 0.47956-0.0734 0.66146 0s0.0331 0.13345-0.33073 0.13345c-0.3638 0-0.51263-0.06006-0.33073-0.13345zm-1.3229-0.26458c0.1819-0.0734 0.47956-0.0734 0.66146 0s0.0331 0.13345-0.33073 0.13345c-0.3638 0-0.51263-0.06006-0.33073-0.13345zm-1.3229-0.26458c0.1819-0.0734 0.47955-0.0734 0.66146 0 0.1819 0.0734 0.0331 0.13345-0.33073 0.13345-0.36381 0-0.51263-0.06006-0.33073-0.13345zm-5.4287-1.4123c0-0.50932 0.0544-0.71768 0.121-0.46302 0.0666 0.25466 0.0666 0.67138 0 0.92604-0.0666 0.25466-0.121 0.0463-0.121-0.46302zm10.809 0.44257c0.0606-0.04763 0.91091-0.82154 1.8895-1.7198 0.97859-0.89826 1.9192-1.6332 2.0902-1.6332 0.17103 0-0.15339 0.3424-0.72093 0.7609-0.56753 0.41849-1.4422 1.1924-1.9437 1.7198-0.50149 0.52739-1.0274 0.95889-1.1686 0.95889s-0.20717-0.03897-0.14653-0.0866zm-40.671-3.7499c6.9e-4 -1.4552 0.0451-2.0168 0.0987-1.2479s0.053 1.9595-1e-3 2.6458c-0.0543 0.68634-0.0982 0.05728-0.0975-1.3979zm11.918 1.7486c-1.8056-1.1011-2.5209-2.7785-1.8595-4.3613 0.38952-0.93224 1.7663-2.0202 2.5445-2.0108 0.21828 0.0026-0.11363 0.23652-0.73757 0.5197-2.6604 1.2075-2.3287 4.5278 0.58448 5.8509 0.59352 0.26956 0.90054 0.49229 0.68225 0.49494-0.21828 0.0026-0.76462-0.21943-1.2141-0.49351zm3.0166 0.31957c0.19099-0.07643 0.4192-0.06703 0.50712 0.02087 0.0879 0.08792-0.0684 0.15045-0.34727 0.13896-0.30823-0.0127-0.37092-0.07539-0.15985-0.15985zm15.027-0.01101c-0.0738-0.0738-0.52718-0.23738-1.0075-0.3635-0.87332-0.22931-0.87332-0.22931 0.11887-0.11825l0.99219 0.11106-5e-3 -1.5047c-3e-3 -0.8276-0.17941-2.3299-0.39308-3.3386-0.21366-1.0086-0.34594-1.8764-0.29395-1.9284 0.21547-0.21546 0.75575 2.5906 0.88756 4.6097 0.11152 1.7082 0.23253 2.1894 0.56819 2.2597 0.31588 0.06607 0.27607 0.13044-0.15349 0.24817-0.319 0.08743-0.64038 0.09857-0.71418 0.02477zm-13.212-0.99218c0.90766-0.90765 0.97337-1.4619 0.17331-1.4619-0.32608 0-0.37491-0.19081-0.23698-0.92604 0.10854-0.57853 0.0699-0.92604-0.10284-0.92604-0.15212 0-0.29039 0.26789-0.30727 0.59531-0.0253 0.49008-0.053 0.50849-0.15712 0.10413-0.11344-0.44075-0.3052-0.47204-1.8675-0.30473-2.635 0.28218-2.6741 0.36335-0.72215 1.4958 0.97023 0.56287 1.873 0.95606 2.0062 0.87376 0.13316-0.0823 0.25152-0.47003 0.26301-0.86163 0.0115-0.39159 0.0826-0.55805 0.15812-0.36991 0.19477 0.48549-0.13526 1.6423-0.46853 1.6423-0.40429 0-3.9438-2.1385-3.9438-2.3827 0-0.2528 0.72896-0.43312 2.712-0.67086 1.2253-0.1469 1.5214-0.27569 1.5214-0.66187 0-0.54078-1.1822-1.5762-1.7996-1.5762-0.22291 0-0.32974-0.07556-0.23739-0.1679 0.34063-0.34064 1.7634 0.51253 2.0918 1.2543 0.19925 0.45013 0.54252 0.76569 0.83295 0.76569 0.41808 0 0.4682 0.13765 0.32606 0.89534-0.12689 0.6764-0.0669 0.93411 0.24515 1.0539 0.57745 0.22159 0.73967-0.37197 0.60615-2.2178-0.0871-1.2046-0.26602-1.7389-0.75885-2.2664-0.79218-0.84793-1.9343-1.4682-3.1584-1.7151-0.90925-0.18347-0.91165-0.18736-0.13229-0.2148 0.43818-0.01542 1.399 0.31922 2.1449 0.74705 1.6644 0.95461 2.2207 2.0065 2.2207 4.1989 0 1.0257 0.11759 1.6391 0.33073 1.7251 0.20114 0.08116 0.15295 0.14164-0.12299 0.15434-0.24954 0.01148-0.59089 0.28878-0.75857 0.6162-0.16767 0.32742-0.55881 0.80102-0.8692 1.0524-0.96123 0.77862-0.95477 0.51537 0.011-0.45044zm10.111 0.69956c-0.0645-0.19364-0.53087-0.45946-1.0363-0.59072l-0.91893-0.23864 0.99219 0.11106c0.6504 0.0728 0.99358 0.0029 0.99624-0.20303 3e-3 -0.22163 0.0613-0.22841 0.19843-0.02305 0.10692 0.16008 0.37299 0.35904 0.59127 0.44213 0.32725 0.12457 0.31952 0.15474-0.0441 0.17196-0.24253 0.01148-0.49058 0.16972-0.55122 0.35162-0.0846 0.25389-0.13751 0.24893-0.2276-0.02135zm10.745-0.04479c-0.70803-0.18016-0.72231-0.20198-0.13229-0.20198 0.3638 0 1.0186 0.09089 1.4552 0.20198 0.70802 0.18016 0.72231 0.20198 0.13229 0.20198-0.3638 0-1.0186-0.09089-1.4552-0.20198zm-1.7859-0.43981c0.1819-0.0734 0.47956-0.0734 0.66146 0s0.0331 0.13345-0.33073 0.13345c-0.3638 0-0.51263-0.06006-0.33073-0.13345zm-16.206-1.1477c-0.70803-0.18016-0.72232-0.20198-0.1323-0.20198 0.36381 0 1.0186 0.09089 1.4552 0.20198 0.70803 0.18016 0.72232 0.20198 0.13229 0.20198-0.3638 0-1.0186-0.09089-1.4552-0.20198zm7.6274-1.4552c1e-3 -1.0186 0.049-1.4029 0.10627-0.854 0.0573 0.54895 0.0563 1.3824-2e-3 1.8521-0.0584 0.4697-0.10532 0.02056-0.10414-0.99809zm-34.407 0c2e-3 -0.7276 0.0534-0.99386 0.11419-0.59167 0.0608 0.40218 0.0592 0.9975-4e-3 1.3229-0.0628 0.32542-0.11256-0.0037-0.11058-0.73124zm0.23069-1.9844c0-0.3638 0.06-0.51263 0.13345-0.33073 0.0734 0.1819 0.0734 0.47956 0 0.66146s-0.13345 0.03307-0.13345-0.33073zm7.2292-0.26458c0.24266-1.5421 1.4851-3.7598 2.9-5.1765 1.4056-1.4073 4.1359-2.9224 5.704-3.1652 0.65565-0.10154 0.50115 5.56e-4 -0.52917 0.34964-2.1692 0.73499-3.128 1.3031-4.6862 2.7767-1.6745 1.5836-2.3551 2.626-3.0317 4.6429-0.33682 1.004-0.45461 1.1929-0.35697 0.57246zm26.657-0.52917c0-0.50932 0.0545-0.71768 0.121-0.46302 0.0666 0.25466 0.0666 0.67138 0 0.92604s-0.121 0.0463-0.121-0.46302zm-33.644-0.15123c-0.0272-0.39957 0.8122-2.8095 0.93563-2.6861 0.0559 0.05593-0.12736 0.747-0.4073 1.5357-0.27995 0.7887-0.5177 1.3064-0.52833 1.1504zm33.339-1.326c0.0127-0.30823 0.0754-0.37092 0.15985-0.15985 0.0764 0.19099 0.067 0.4192-0.0209 0.50712-0.0879 0.08792-0.15046-0.06835-0.13897-0.34727zm1.9678-1.0965c-1.2742-3.4312-3.7937-6.5145-7.0158-8.5859-1.0914-0.70162-1.8862-1.2757-1.7661-1.2757 0.34566-5.7e-5 3.6675 2.2084 4.7457 3.155 1.2664 1.1119 3.2231 4.064 4.0618 6.1283 0.36299 0.89333 0.61123 1.673 0.55163 1.7326-0.0596 0.05959-0.31936-0.45984-0.57726-1.1543zm-2.4618-0.51836c-0.8732-2.9145-2.801-5.4173-5.576-7.239-1.0979-0.72078-1.88-1.3105-1.7379-1.3105 0.40129 0 3.0574 1.8001 4.0334 2.7335 1.6342 1.5629 3.9696 5.7465 3.6848 6.6009-0.049 0.14702-0.23096-0.20616-0.40434-0.78485zm-31.806-0.26291c0-0.63653 2.6547-4.2776 4.0162-5.5085 1.4355-1.2978 3.8012-2.8524 4.8474-3.1855 0.29104-0.09266-0.11466 0.19906-0.90156 0.64828-3.3052 1.8868-5.1599 3.6736-7.0204 6.7633-0.51787 0.86-0.94158 1.4371-0.94158 1.2824zm16.735-4.7769c0.69123-0.0545 1.8223-0.0545 2.5135 0 0.69123 0.0545 0.12568 0.0991-1.2568 0.0991-1.3824 0-1.948-0.0446-1.2568-0.0991zm5.7547-4.0519c-0.65484-0.26804-1.012-0.4907-0.79375-0.49479 0.21828-0.0041 0.87313 0.21791 1.4552 0.49336 1.3516 0.63959 0.90002 0.64057-0.66146 0.0014zm-12.295-0.38258c0.44114-0.19385 1.2746-0.42322 1.8521-0.50972 0.70994-0.10633 0.49301 0.0118-0.66978 0.36474-1.9843 0.60228-2.3154 0.64288-1.1823 0.14498zm9.5167-0.39813c-0.72024-0.18327-0.73249-0.20315-0.1323-0.21468 0.36381-7e-3 0.89959 0.08962 1.1906 0.21468 0.6524 0.28035 0.0434 0.28035-1.0583 0zm-5.0836-0.4604c0.84205-0.05267 2.1517-0.05218 2.9104 0.0011 0.75867 0.05326 0.0697 0.09635-1.531 0.09576-1.6007-6.09e-4 -2.2215-0.04418-1.3794-0.09684z"/>
</g>
</g>
</svg>
