<?xml version="1.0" encoding="UTF-8" standalone="no"?>
<svg
   xmlns:dc="http://purl.org/dc/elements/1.1/"
   xmlns:cc="http://creativecommons.org/ns#"
   xmlns:rdf="http://www.w3.org/1999/02/22-rdf-syntax-ns#"
   xmlns:svg="http://www.w3.org/2000/svg"
   xmlns="http://www.w3.org/2000/svg"
   xmlns:sodipodi="http://sodipodi.sourceforge.net/DTD/sodipodi-0.dtd"
   xmlns:inkscape="http://www.inkscape.org/namespaces/inkscape"
   width="auto"
   height="auto"
   viewBox="0 0 122.3439 68.320168"
   version="1.1"
   id="svg840"
   inkscape:version="1.0.2 (e86c870879, 2021-01-15)"
   sodipodi:docname="lifeboat.svg">
  <defs
     id="defs834" />
  <sodipodi:namedview
     id="base"
     pagecolor="#ffffff"
     bordercolor="#666666"
     borderopacity="1.0"
     inkscape:pageopacity="0.0"
     inkscape:pageshadow="2"
     inkscape:zoom="0.35"
     inkscape:cx="219.24794"
     inkscape:cy="207.93883"
     inkscape:document-units="mm"
     inkscape:current-layer="layer1"
     inkscape:document-rotation="0"
     showgrid="false"
     inkscape:window-width="1536"
     inkscape:window-height="784"
     inkscape:window-x="0"
     inkscape:window-y="0"
     inkscape:window-maximized="1" />
  <metadata
     id="metadata837">
    <rdf:RDF>
      <cc:Work
         rdf:about="">
        <dc:format>image/svg+xml</dc:format>
        <dc:type
           rdf:resource="http://purl.org/dc/dcmitype/StillImage" />
        <dc:title></dc:title>
      </cc:Work>
    </rdf:RDF>
  </metadata>
  <g
     inkscape:label="Layer 1"
     inkscape:groupmode="layer"
     id="layer1"
     transform="translate(-47.823983,-93.149517)">
    <path
       style="fill:white;stroke-width:.6"
       d="m 77.20813,161.34409 c -5.332616,-0.47608 -14.07686,-3.27279 -17.220184,-5.50761 -1.580814,-1.12392 -5.345335,-4.82417 -6.716353,-6.60169 -3.789441,-4.91299 -5.974143,-12.48882 -5.338296,-18.51146 0.403661,-3.82339 1.265525,-6.54719 2.815436,-8.89777 3.866338,-5.86367 12.977201,-12.049 20.631502,-14.00664 6.538677,-1.67231 19.181281,-1.99037 21.173728,-0.53268 0.145521,0.10646 0.887659,0.26361 1.649193,0.34923 0.774399,0.0871 2.173653,0.55102 3.175,1.05275 0.984716,0.49339 2.445234,1.11102 3.245594,1.37249 0.80037,0.26148 2.00339,0.74981 2.67339,1.08519 l 1.21818,0.60977 0.57409,-0.77651 c 1.28929,-1.74385 4.29269,-2.37598 6.33603,-1.33354 0.54507,0.27807 1.73087,1.38917 2.63512,2.46912 0.90425,1.07994 2.1197,2.34574 2.70098,2.81287 3.60977,2.90089 8.12441,1.72749 10.09945,-2.62496 0.54601,-1.20324 0.92684,-3.13999 1.28417,-6.5308 0.41041,-3.8945 0.85098,-5.15772 2.32556,-6.667931 2.19168,-2.24467 5.50164,-3.05487 9.31964,-2.28124 2.58484,0.52375 3.14979,0.78704 4.78991,2.23228 1.58128,1.393381 2.02119,2.551141 2.33706,6.150651 0.30723,3.50097 0.85365,4.50575 2.72764,5.01565 2.4283,0.66072 7.09196,-0.29046 10.24545,-2.08962 3.76315,-2.14698 7.23787,-5.22503 8.43264,-7.46997 0.84356,-1.585031 1.07725,-4.388681 0.4461,-5.351941 -0.79723,-1.21672 -3.43969,-1.65127 -5.30413,-0.87226 -1.14045,0.47651 -2.88475,2.21799 -4.17081,4.16407 -1.53146,2.317431 -1.27317,2.790961 1.0404,1.907401 2.04452,-0.780811 2.71484,0.11442 0.72449,0.96758 -2.11702,0.90746 -3.81716,0.45407 -3.81204,-1.01659 0.006,-1.788291 3.05706,-5.518741 5.47451,-6.694051 2.54563,-1.23763 5.69964,-0.54905 6.90243,1.50692 0.50534,0.86378 0.59191,1.34124 0.52346,2.88703 -0.13305,3.004871 -1.47707,5.158941 -4.93384,7.907501 -7.61362,6.05376 -16.25457,7.15789 -18.57092,2.37295 -0.47139,-0.97377 -0.64737,-1.90383 -0.76674,-4.05235 -0.18244,-3.28384 -0.53755,-4.11364 -2.25703,-5.274101 -1.8168,-1.22614 -3.76901,-1.69759 -6.45668,-1.55926 -2.81881,0.14507 -4.62728,0.87788 -6.09434,2.469451 -1.48755,1.6138 -1.78997,2.53188 -2.2405,6.8016 -0.50112,4.74906 -1.09468,6.53448 -2.72148,8.18611 -1.645,1.67011 -3.42104,2.42041 -5.39193,2.27785 -2.29445,-0.16596 -3.77173,-1.06939 -5.99583,-3.66672 -2.87642,-3.35913 -5.35353,-4.40775 -7.81907,-3.31 -1.67147,0.74419 -1.67987,0.78553 -0.42326,2.08237 0.63765,0.65806 1.35361,1.41524 1.59102,1.68262 0.23741,0.26738 1.2355,1.26005 2.21798,2.20593 3.85289,3.70942 6.87437,10.04583 7.41721,15.55482 0.19682,1.99735 -0.0463,4.50528 -0.39953,4.12242 -0.11691,-0.1267 -0.35639,-1.24239 -0.53217,-2.47932 -1.0482,-7.37596 -3.48057,-13.20363 -6.99635,-16.76245 l -1.34505,-1.36151 -0.087,0.91446 c -0.16479,1.73254 -1.531,2.99534 -4.5443,4.20036 -0.80095,0.3203 -1.79227,0.85027 -2.20292,1.17771 l -0.74665,0.59536 0.70081,1.39528 0.70081,1.39529 0.57646,-0.87048 c 0.76284,-1.15193 2.73012,-2.12376 4.05908,-2.00519 l 1.01453,0.0905 -1.5875,0.49187 c -1.87111,0.57976 -2.75975,1.21184 -3.31786,2.35998 -0.37176,0.76478 -0.36597,0.97346 0.0661,2.3831 0.26047,0.84971 0.47359,2.0114 0.47359,2.58154 v 1.0366 l 1.82127,-0.16926 c 2.39461,-0.22256 4.79539,0.49289 7.30518,2.177 3.31496,2.2244 5.42563,4.84906 5.42563,6.7469 0,1.49742 -1.09041,4.55921 -2.25181,6.32292 -0.62287,0.94589 -2.30579,2.92323 -3.73982,4.39409 -2.49207,2.55608 -2.88134,2.84338 -8.03129,5.92752 -0.21828,0.13072 -1.52797,0.66418 -2.91041,1.18548 -1.382452,0.52129 -2.751671,1.05489 -3.042713,1.18579 -1.262239,0.56767 -7.38487,1.95479 -10.054166,2.27783 -2.667426,0.32281 -8.270211,0.42182 -10.847917,0.19168 z m 0.79375,-1.26904 c -2.16317,-1.54247 -2.645455,-1.95904 -3.192759,-2.75775 -0.530476,-0.77415 -2.389505,-1.80507 -2.698258,-1.49632 -0.404209,0.40421 5.084157,4.65736 5.987312,4.63981 0.357804,-0.007 0.341104,-0.0738 -0.0963,-0.38574 z m 4.023836,-0.412 c -1.713015,-1.07563 -1.367837,-1.40069 0.52995,-0.49906 1.671384,0.79406 3.520908,1.3664 3.507642,1.08545 -0.0046,-0.0974 -0.547499,-0.50439 -1.206444,-0.90439 -0.658945,-0.4 -1.125704,-0.84438 -1.037241,-0.98752 0.09358,-0.15142 0.578469,0.0161 1.159566,0.40068 1.197837,0.7927 3.591216,1.34252 4.667787,1.07231 l 0.777473,-0.19513 -1.111481,-0.57528 c -0.611317,-0.31641 -1.382331,-0.81341 -1.71337,-1.10445 -0.549005,-0.48268 -0.912844,-0.52202 -4.141205,-0.44786 -3.108349,0.0714 -4.465894,-0.0385 -7.837763,-0.63447 l -0.79375,-0.1403 0.926042,0.82959 c 0.509323,0.45627 1.402291,1.06412 1.984375,1.35078 0.667117,0.32854 0.868484,0.3701 0.544742,0.11246 -0.282474,-0.22481 -0.609896,-0.40874 -0.727604,-0.40874 -0.117708,0 -0.214013,-0.17458 -0.214013,-0.38795 0,-0.30909 0.19246,-0.2744 0.946756,0.17064 1.027279,0.60611 4.313007,2.02365 4.741785,2.04572 0.145521,0.007 -0.30594,-0.34463 -1.003247,-0.78248 z m -8.00576,-0.82174 c -0.655584,-0.6043 -1.561594,-1.66915 -2.013354,-2.36633 -0.819719,-1.26504 -1.378625,-1.6963 -1.833806,-1.41498 -0.533133,0.32949 -0.164076,0.94084 1.377468,2.28179 0.889998,0.77419 1.872263,1.66294 2.182813,1.97499 0.310552,0.31206 0.770337,0.57995 1.021746,0.59532 0.299014,0.0183 0.04485,-0.35207 -0.734867,-1.07079 z m -2.500368,-0.48878 c -1.292497,-1.19322 -1.459365,-1.27849 -1.066927,-0.54522 0.428445,0.80056 -0.236027,1.00628 -0.815705,0.25255 -1.15575,-1.50278 -0.77707,-4.17562 1.062345,-7.49835 l 1.000622,-1.80752 -0.468069,-0.95542 c -0.257437,-0.52548 -0.587611,-1.25307 -0.733719,-1.61687 -0.241096,-0.60032 -0.267306,-0.55674 -0.283556,0.47152 -0.0098,0.62314 -0.199734,1.56815 -0.421968,2.10003 -0.358865,0.85888 -0.448379,0.92274 -0.800275,0.57084 -0.217916,-0.21792 -0.469392,-1.0141 -0.558834,-1.7693 -0.128233,-1.08272 -0.262824,-1.37309 -0.636466,-1.37309 -0.408591,0 -0.439952,0.11817 -0.227727,0.85815 0.316161,1.10239 0.318865,3.56358 0.0041,3.75809 -0.528616,0.32671 -1.399595,-1.75896 -1.790858,-4.28843 -0.267267,-1.72785 -0.559435,-2.74347 -0.886833,-3.08276 -0.479227,-0.49664 -0.491713,-0.49222 -0.675212,0.2389 -0.108082,0.43064 -0.0072,1.53708 0.239054,2.62266 0.439809,1.93859 0.560602,2.98467 0.476515,4.12672 l -0.0487,0.66146 -0.517446,-0.62102 c -0.533342,-0.6401 -0.800629,-1.46538 -1.313278,-4.05488 -0.308303,-1.55732 -0.563928,-1.93119 -1.458963,-2.13385 -0.50928,-0.11531 -0.510413,-0.12791 -0.03018,-0.33516 1.018207,-0.43942 1.41309,0.21405 2.295184,3.79818 0.487558,1.98104 0.555805,1.01003 0.102973,-1.4651 -0.396462,-2.16703 -0.397391,-2.44819 -0.01117,-3.37258 0.348173,-0.8333 0.487873,-0.95326 0.804286,-0.69066 0.567343,0.47085 1.160317,2.24228 1.588698,4.74601 0.536253,3.13421 1.059456,3.50967 0.776433,0.55719 -0.377454,-3.93762 -0.07276,-5.50645 0.808295,-4.16179 0.55301,0.844 0.941514,2.20576 0.941514,3.30015 0,1.48759 0.445873,0.93733 0.624385,-0.77058 0.09383,-0.89772 0.231082,-1.6927 0.305006,-1.76662 0.304438,-0.30444 1.981026,2.71251 1.981026,3.56476 0,0.58585 0.365313,0.42576 1.337159,-0.58598 0.959411,-0.99879 2.549954,-1.94294 3.348654,-1.98777 0.260458,-0.0146 0.02921,-0.13138 -0.513887,-0.25946 -1.879722,-0.44333 -5.104172,-1.82433 -6.553176,-2.80667 -1.273974,-0.86367 -1.634035,-0.98131 -2.891081,-0.94457 -2.546176,0.0744 -5.848588,2.1158 -7.786452,4.81317 -1.652609,2.30031 -1.640801,2.11599 -0.305896,4.77394 0.659535,1.31322 1.254485,2.38767 1.322113,2.38767 0.06762,0 -0.293627,-0.91413 -0.802781,-2.0314 -1.382686,-3.0341 -0.944776,-2.96683 0.659736,0.10135 1.386999,2.65223 2.735313,4.57588 3.207301,4.57588 0.133964,0 -0.179091,-0.55372 -0.695682,-1.23049 -1.470944,-1.92704 -2.984964,-5.2147 -2.530732,-5.49543 0.111299,-0.0688 0.356851,0.31507 0.545669,0.85303 0.471066,1.3421 1.642094,3.22726 3.255004,5.24 0.745395,0.93017 1.394923,1.69122 1.443398,1.69122 0.04847,0 -0.196501,-0.45089 -0.544386,-1.00197 -0.347887,-0.55109 -1.012306,-1.75433 -1.476489,-2.67387 -1.030957,-2.04231 -0.489063,-2.04778 0.661514,-0.007 1.313717,2.33051 2.784391,4.54385 2.925464,4.40277 0.07221,-0.0722 -0.401394,-1.00489 -1.05246,-2.07263 -0.651065,-1.06774 -1.12059,-2.04354 -1.043384,-2.16846 0.158332,-0.25619 1.87208,2.0284 2.765695,3.68694 0.531429,0.98632 0.769588,1.14903 2.458135,1.67941 1.028335,0.323 1.988759,0.62581 2.13428,0.67291 0.91295,0.29549 0.870185,-0.005 -0.132292,-0.93092 z M 60.690269,146.9534 c 0.01021,-0.64271 0.117962,-1.4067 0.239414,-1.69774 0.133323,-0.3195 0.163899,0.0999 0.07717,1.05833 -0.172974,1.91158 -0.342271,2.25351 -0.316582,0.63941 z m 32.986528,11.9758 c 0.207092,-0.13152 -0.356875,-0.42991 -1.521354,-0.80496 -1.017741,-0.32778 -1.850438,-0.72205 -1.850438,-0.87614 0,-0.15469 0.266629,-0.21891 0.595313,-0.14338 3.566691,0.81955 5.026956,1.02858 5.931971,0.84916 l 1.013341,-0.20089 -1.322917,-0.31459 c -0.727604,-0.17303 -1.785876,-0.55518 -2.351717,-0.84924 -1.101508,-0.57243 -1.158081,-0.566 -5.850366,0.66476 l -0.79375,0.2082 1.190625,0.61816 c 0.993465,0.5158 2.005587,0.75396 4.365625,1.02726 0.145521,0.0169 0.412671,-0.0634 0.593667,-0.17834 z m -4.169384,-2.69855 c 5.24855,-1.27572 9.502807,-2.84356 13.629887,-5.02308 5.63528,-2.976 5.66391,-3.01029 4.45251,-5.33235 -1.4628,-2.80394 -2.88646,-3.78138 -6.51183,-4.47079 -0.84159,-0.16004 -1.675023,-0.44933 -1.852085,-0.64287 -0.265462,-0.29017 -0.461163,-0.2493 -1.115682,0.23297 -2.122529,1.56395 -6.083038,3.19015 -9.789583,4.01964 -2.275819,0.50931 -7.405187,0.66468 -9.855729,0.29852 -1.135039,-0.16959 -1.389063,-0.13706 -1.389063,0.17792 0,0.21201 -0.393456,0.51532 -0.874347,0.67403 -1.010177,0.33339 -2.704531,2.00307 -3.776223,3.72123 -0.989103,1.58575 -1.964013,3.61126 -1.964013,4.08051 0,0.70272 5.471157,2.46781 8.995833,2.90221 2.115963,0.26079 7.850291,-0.1032 10.050325,-0.63794 z m 9.264259,0.0965 c -1.370378,-0.47494 -1.907318,-0.84616 -1.702724,-1.1772 0.07894,-0.12773 0.570648,-0.0538 1.092682,0.16434 1.260544,0.52669 3.49383,0.76278 4.30341,0.45493 0.61877,-0.23528 0.59954,-0.257 -0.39218,-0.44305 -0.57358,-0.10761 -1.49434,-0.41378 -2.04615,-0.68038 l -1.003287,-0.48474 -2.410574,0.80847 c -1.805562,0.60555 -2.304095,0.86805 -1.986314,1.04589 0.481464,0.26944 3.021052,0.67532 4.40972,0.70476 l 0.926042,0.0196 -1.190625,-0.41265 z m 6.217708,-2.04636 1.05833,-0.32695 -0.9656,-0.18889 c -0.53108,-0.10389 -1.12639,-0.3836 -1.32292,-0.62158 -0.32285,-0.39095 -0.25523,-0.41933 0.70102,-0.29421 0.58209,0.0762 1.29646,0.0443 1.5875,-0.0709 0.44847,-0.17743 0.45856,-0.21219 0.0662,-0.22795 -0.94091,-0.0378 -0.42397,-0.49354 0.76143,-0.6713 1.72747,-0.25905 1.98937,-0.39566 1.81455,-0.9465 -0.0917,-0.28899 0.0165,-0.57234 0.27342,-0.71614 0.36336,-0.20335 0.37082,-0.28307 0.0513,-0.54825 -0.29741,-0.24683 -0.81339,-0.0489 -2.5225,0.96764 -1.18173,0.70288 -3.16329,1.6849 -4.40347,2.18226 -1.24019,0.49738 -2.255711,0.98179 -2.25673,1.07647 -0.0029,0.26566 1.8604,0.69839 3.04086,0.70621 0.58208,0.004 1.53458,-0.14011 2.11667,-0.31993 z m -44.317708,-0.0137 c 0,-0.0642 -0.119063,-0.19026 -0.264584,-0.2802 -0.14552,-0.0899 -0.264583,-0.0374 -0.264583,0.11667 0,0.15411 0.119063,0.2802 0.264583,0.2802 0.145521,0 0.264584,-0.0525 0.264584,-0.11667 z m -1.97833,-1.7987 c -0.503221,-0.90793 -1.051329,-1.69625 -1.21802,-1.75181 -0.314227,-0.10475 0.871014,2.12533 1.562333,2.93958 0.682416,0.80377 0.597903,0.51223 -0.344313,-1.18777 z m -1.517179,-0.9289 c -0.433541,-1.02032 -0.737825,-1.32352 -0.737825,-0.73521 0,0.41783 0.686779,1.46282 0.961377,1.46282 0.04708,0 -0.05351,-0.32742 -0.223552,-0.72761 z m -2.115589,-3.01748 c -2.153394,-2.1534 -4.176917,-5.18815 -5.16354,-7.74397 -0.341368,-0.8843 -0.548071,-1.25063 -0.45934,-0.81407 0.51305,2.52423 2.397516,6.04701 4.791358,8.95686 1.37106,1.6666 1.538845,1.79122 1.756108,1.30432 0.197509,-0.44264 0.03314,-0.74541 -0.924586,-1.70314 z m 56.210876,0.23938 c 0.34266,-0.32742 0.40883,-0.42803 0.14704,-0.22358 -0.43979,0.34347 -0.47599,0.29604 -0.47599,-0.62362 0,-0.78695 -0.0852,-0.96266 -0.40688,-0.83922 -0.77857,0.29877 -0.67197,-0.56967 0.42157,-3.43466 1.15901,-3.03654 1.88035,-5.45389 1.57025,-5.26224 -0.10146,0.0627 -0.70794,1.54621 -1.34773,3.29667 -0.63978,1.75045 -1.23981,3.18296 -1.33338,3.18334 -0.52606,0.002 -0.4071,-1.23689 0.40392,-4.20727 1.09638,-4.01554 1.27798,-4.98626 0.96856,-5.17749 -0.27769,-0.17162 -1.65508,3.3315 -2.12979,5.41671 -0.77398,3.39975 -1.34393,2.44832 -0.69838,-1.16581 0.49174,-2.75305 0.57291,-5.44877 0.16407,-5.44877 -0.4386,0 -0.81726,1.27859 -1.21453,4.10104 -0.20482,1.45521 -0.49152,2.99505 -0.63711,3.42186 -0.22711,0.66578 -0.17283,0.8725 0.3821,1.4552 0.97895,1.02796 2.41729,3.5492 2.79559,4.90034 0.18522,0.66154 0.43372,1.20281 0.55221,1.20281 0.11849,0 0.49581,-0.26789 0.83848,-0.59531 z M 56.57063,147.7692 c -0.08994,-0.14552 -0.0672,-0.26487 0.05053,-0.26521 0.117729,-2.7e-4 0.556075,-0.6552 0.974101,-1.45522 0.916609,-1.75423 3.559085,-4.29808 5.348364,-5.14874 0.714957,-0.33991 1.863616,-0.67477 2.552578,-0.74415 l 1.252654,-0.12613 -0.826868,-1.04401 c -0.856464,-1.08137 -2.058048,-3.70161 -2.069036,-4.51185 -0.01069,-0.78731 -1.57104,-0.57512 -3.262993,0.44371 -1.625893,0.97907 -2.047047,0.84828 -0.645893,-0.20057 1.2563,-0.94042 2.46039,-1.49991 3.228007,-1.49991 0.61685,0 0.67482,-0.0963 0.677183,-1.12448 0.0031,-1.34197 1.199504,-4.12927 1.600374,-3.7284 0.174506,0.17451 0.02839,0.68325 -0.433707,1.51003 -0.610907,1.09303 -0.684943,1.48222 -0.600118,3.15474 0.153104,3.01884 1.143897,4.70995 4.616879,7.88019 0.778671,0.7108 3.635129,1.96604 6.380491,2.80385 2.108348,0.6434 2.729428,0.7104 6.689746,0.72166 4.795927,0.0136 6.649463,-0.32321 10.534327,-1.91441 3.855106,-1.579 5.779275,-3.07974 7.518001,-5.8636 l 0.90889,-1.45521 -0.34704,-2.38125 c -0.957262,-6.56842 -5.245867,-10.71528 -13.322512,-12.88217 -3.029288,-0.81272 -7.476471,-0.59567 -10.77015,0.52566 -3.007945,1.02406 -6.69268,3.26803 -9.108533,5.54703 -0.999431,0.94281 -1.817076,1.55095 -1.816983,1.35143 2.64e-4,-0.61281 2.326989,-3.36641 3.821803,-4.52301 l 1.415476,-1.09521 -0.351616,-1.16833 c -0.722148,-2.39952 -3.27447,-5.12528 -6.011677,-6.4202 -2.171113,-1.02711 -2.925794,-0.99678 -4.698518,0.18878 -1.731259,1.15783 -4.899721,3.71978 -5.797275,4.68754 l -0.641435,0.69161 1.170601,0.006 c 0.64383,0.004 1.884974,0.30056 2.758099,0.66023 0.873125,0.35967 1.602383,0.6545 1.620573,0.65518 0.01818,7.9e-4 0.106331,-0.36507 0.195868,-0.81275 0.09873,-0.49363 0.78857,-1.46566 1.752865,-2.46987 1.665798,-1.73476 1.831059,-2.00782 1.215131,-2.00782 -0.869773,0 -2.783867,1.0825 -4.195739,2.37287 -1.686272,1.54116 -1.961491,1.42499 -0.654844,-0.27642 1.022811,-1.33181 3.354557,-2.62885 5.074542,-2.82272 1.703813,-0.19204 1.59431,0.26041 -0.642771,2.65585 -1.018646,1.09076 -1.852083,2.05532 -1.852083,2.14347 0,0.38029 0.544197,0.0786 2.076397,-1.15105 2.014958,-1.61712 4.273603,-2.38314 4.273603,-1.4494 0,0.69126 -0.523886,1.50029 -1.948545,3.00914 -1.226939,1.29944 -1.262489,1.36871 -0.366456,0.71406 0.992327,-0.725 2.58572,-1.49164 3.100252,-1.49164 1.003337,0 -0.499329,4.43369 -1.97136,5.81659 l -0.665975,0.62567 0.0016,-0.64144 c 7.94e-4,-0.35279 0.526296,-1.40286 1.167578,-2.3335 1.012857,-1.46988 1.295297,-2.41321 0.720733,-2.40719 -0.09357,0.001 -0.999966,0.53676 -2.01421,1.19063 -1.014222,0.65386 -1.936956,1.18884 -2.050497,1.18884 -0.113543,0 -0.206441,-0.30665 -0.206441,-0.68145 0,-0.49528 0.524065,-1.19923 1.918229,-2.57667 1.691125,-1.67083 1.848007,-1.90554 1.3251,-1.9825 -0.404604,-0.0595 -1.424348,0.5214 -3.208235,1.82771 l -2.615099,1.915 1.242533,0.98217 c 2.665191,2.10671 4.116359,4.57004 3.438459,5.8367 -0.417412,0.77994 -0.867029,0.26015 -1.400336,-1.61889 -0.720881,-2.53994 -3.483324,-4.85544 -6.840262,-5.73357 -2.491971,-0.65187 -3.275225,-0.40411 -4.631421,1.46498 -1.626835,2.24208 -2.294035,5.38302 -2.312259,10.88527 l -0.01357,4.10104 1.239808,2.51354 c 1.35921,2.75561 2.705761,4.68536 4.754031,6.81302 1.178422,1.2241 2.137682,1.86652 1.679077,1.12448 z m 2.086248,-15.71815 c 0.949092,-0.76065 4.097567,-0.85385 4.542178,-0.13445 0.08992,0.14549 -0.639704,0.22014 -1.782902,0.18241 -1.064308,-0.0351 -2.232764,0.0297 -2.596566,0.14395 -0.624562,0.19622 -0.63364,0.18551 -0.16271,-0.19191 z m 53.322712,13.60148 c 0.29704,-0.62369 0.29153,-0.63213 -0.0965,-0.14786 -0.22631,0.28247 -0.41147,0.62974 -0.41147,0.7717 0,0.33616 0.12221,0.18606 0.50792,-0.62384 z m 1.07147,-1.98437 c 0,-0.14552 -0.11541,-0.086 -0.25647,0.13229 -0.14107,0.21828 -0.25648,0.51594 -0.25648,0.66146 0,0.14552 0.11541,0.086 0.25648,-0.13229 0.14106,-0.21828 0.25647,-0.51594 0.25647,-0.66146 z m -0.25647,-1.81446 c 0,-0.6707 -0.11396,-0.5245 -0.48626,0.62383 -0.27281,0.84149 -0.26432,0.87915 0.093,0.41246 0.21629,-0.28248 0.39324,-0.74881 0.39324,-1.03629 z m -6.6537,-3.4776 c 0.0512,-2.10983 0.006,-3.83607 -0.10126,-3.83607 -0.68695,0 -1.89041,2.25185 -2.26243,4.23334 -0.20645,1.09963 -0.21609,1.06423 -0.12607,-0.46313 0.10632,-1.80399 1.03832,-3.78486 2.03067,-4.31594 0.87403,-0.46777 0.92828,-0.34465 1.02731,2.33167 l 0.0661,1.78594 0.19729,-1.32292 c 0.23662,-1.58662 0.81787,-3.0425 1.41111,-3.53448 0.37885,-0.31419 0.46737,-0.27034 0.70245,0.34795 0.14793,0.38909 0.27674,1.32477 0.28625,2.07928 l 0.0173,1.37184 0.81383,-1.66324 c 0.44761,-0.91478 0.94579,-1.61926 1.10707,-1.5655 0.36121,0.12041 0.74155,2.458 0.54686,3.36103 -0.11046,0.51237 0.002,0.4279 0.49675,-0.37476 0.61778,-1.00127 0.6496,-1.01705 0.94339,-0.46809 0.22085,0.41266 0.23039,1.02202 0.0349,2.22684 -0.33549,2.06731 -0.33697,2.32017 -0.0136,2.32017 0.30267,0 0.67348,-1.24512 0.57126,-1.91823 -0.0387,-0.25466 0.0433,-0.46302 0.18222,-0.46302 0.13889,0 0.32849,-0.30264 0.42132,-0.67253 0.15705,-0.62572 0.19927,-0.64206 0.60655,-0.23479 0.24076,0.24076 0.58108,1.22801 0.75626,2.19389 l 0.31852,1.75614 0.0297,-1.35599 c 0.0514,-2.34886 -0.20332,-2.97317 -1.92955,-4.72956 -1.13411,-1.15393 -2.20958,-1.92725 -3.62422,-2.60601 -2.38476,-1.14424 -3.9432,-1.40964 -5.7426,-0.97797 -1.18289,0.28376 -1.33947,0.40603 -1.48163,1.15696 -0.38297,2.02285 -1.68492,4.60094 -3.09728,6.13316 l -1.028801,1.11612 1.921901,0.31004 c 1.05704,0.17051 2.51565,0.59419 3.24135,0.9415 0.7257,0.34731 1.37898,0.64069 1.45174,0.65195 0.0728,0.0113 0.17423,-1.70575 0.22547,-3.81559 z m 8.95749,0.86337 c -0.0633,-0.32911 -0.11747,-0.12214 -0.1204,0.45994 -0.003,0.58208 0.0488,0.85136 0.11506,0.5984 0.0662,-0.25297 0.0686,-0.72922 0.005,-1.05834 z m -8.47305,0.0134 c -0.0845,-0.21106 -0.14716,-0.14837 -0.15985,0.15986 -0.0115,0.27891 0.0511,0.43518 0.13896,0.34726 0.0879,-0.0879 0.0973,-0.31612 0.0209,-0.50712 z M 100.5344,125.7426 c -0.0734,-0.1819 -0.13345,-0.0331 -0.13345,0.33073 0,0.3638 0.0601,0.51263 0.13345,0.33073 0.0734,-0.1819 0.0734,-0.47956 0,-0.66146 z m -0.44199,-1.97606 c -0.286585,-0.44675 -0.294417,-0.44605 -0.150092,0.0133 0.08375,0.26656 0.166082,0.68328 0.182962,0.92604 0.0276,0.39764 0.0425,0.39632 0.15009,-0.0133 0.0657,-0.25009 -0.0167,-0.66681 -0.18296,-0.92604 z m 0.82823,-0.25306 c -0.31191,-0.53636 -0.38722,-0.36468 -0.13191,0.30066 0.0907,0.23646 0.22072,0.37419 0.28884,0.30607 0.0681,-0.0681 -0.002,-0.34115 -0.15693,-0.60673 z m -2.028715,0.19808 c 0.198411,-0.32104 -0.87883,-3.19448 -1.197597,-3.19448 -0.388861,0 -0.286806,1.08477 0.217448,2.31133 0.464301,1.12938 0.697889,1.33985 0.980149,0.88315 z m -1.44317,-0.485 c 0,-0.11052 -0.267891,-0.36551 -0.595312,-0.56665 -0.593199,-0.36441 -0.593522,-0.36369 -0.09128,0.20094 0.539242,0.60623 0.686596,0.68472 0.686596,0.36571 z m 2.116667,-1.35417 c 0,-0.1277 -0.178594,-0.38041 -0.396875,-0.56156 -0.624682,-0.51844 -0.46295,-0.90217 0.195873,-0.46472 0.538459,0.35752 0.70203,0.33769 1.78594,-0.21654 0.65625,-0.33556 1.97695,-0.97205 2.93487,-1.41443 0.95793,-0.44237 2.05444,-1.09417 2.4367,-1.44843 1.36224,-1.26248 1.2702,-2.94963 -0.21084,-3.86496 -0.51047,-0.31549 -0.85442,-0.69289 -0.76433,-0.83866 0.10737,-0.17372 0.2629,-0.16594 0.45144,0.0226 0.1582,0.1582 0.38992,0.28764 0.51492,0.28764 0.41273,0 -0.0657,-0.48901 -0.872,-0.89123 -0.43612,-0.21757 -0.71974,-0.27714 -0.63028,-0.13237 0.24452,0.39563 -0.61752,1.23979 -2.55493,2.50193 -1.84775,1.20372 -3.388453,2.73846 -4.067665,4.05191 -0.386783,0.74796 -0.375851,0.87656 0.170048,2.00019 0.531977,1.09497 1.007129,1.55196 1.007129,0.96864 z m -5.433246,-1.28917 c -0.403452,-0.5457 -1.085786,-1.36882 -1.516298,-1.82916 -0.430514,-0.46034 -0.736084,-0.97697 -0.67905,-1.14808 0.103529,-0.31059 1.841037,1.42925 3.173402,3.17765 0.617156,0.80987 0.727832,0.86449 0.895532,0.44195 0.12441,-0.31346 -0.0054,-0.74819 -0.370967,-1.24269 -0.573656,-0.77591 -0.365638,-1.36987 0.228878,-0.65352 0.491374,0.59206 0.595318,0.51465 1.414767,-1.05364 0.860012,-1.64593 4.53462,-5.32155 5.58318,-5.58472 0.3699,-0.0928 0.67255,-0.26029 0.67255,-0.37212 0,-0.18197 -2.38586,-1.32681 -2.76509,-1.32681 -0.0844,0 -1.947553,-0.71522 -4.140353,-1.58937 -3.917493,-1.5617 -4.002088,-1.58217 -4.858616,-1.17572 -0.479438,0.22751 -1.132416,0.69116 -1.451062,1.03035 l -0.579353,0.61669 1.328579,2.74184 c 0.730721,1.50801 1.332876,2.6823 1.338125,2.60954 0.0052,-0.0728 -0.172868,-0.7276 -0.395817,-1.45521 -0.468593,-1.52928 -0.576093,-4.80719 -0.170942,-5.21234 0.398857,-0.39886 1.463728,1.83449 2.309641,4.84399 0.384167,1.36676 0.733933,2.52064 0.777256,2.56416 0.04332,0.0435 0.01844,-1.17686 -0.05526,-2.71198 -0.08486,-1.76713 -0.03732,-2.79112 0.129574,-2.79112 0.144984,0 0.338093,0.44649 0.429131,0.99219 0.09104,0.5457 0.454051,1.5875 0.806698,2.3151 0.538919,1.11195 0.644499,1.21392 0.662041,0.63944 0.03622,-1.18634 0.613388,-3.68215 0.851513,-3.68215 0.322599,0 2.204234,3.93249 1.98604,4.15068 -0.283934,0.28397 -0.677517,-0.2533 -1.215457,-1.65916 l -0.497761,-1.30085 -0.28715,0.74483 c -0.157935,0.40965 -0.287152,1.32536 -0.287152,2.0349 0,0.70955 -0.120404,1.36449 -0.267563,1.45544 -0.147351,0.0911 -0.622747,-0.58543 -1.058124,-1.50573 l -0.790562,-1.67111 -2.09e-4,2.18282 c -2.64e-4,3.27462 -0.418422,2.83697 -1.579819,-1.65365 -0.61699,-2.38563 -1.301128,-4.10104 -1.635572,-4.10104 -0.405119,0 -0.235164,1.67393 0.452864,4.46034 0.372184,1.5073 0.618106,2.79915 0.546488,2.87077 -0.315798,0.3158 -0.841763,-0.4272 -1.932738,-2.73028 -0.64338,-1.35818 -1.29412,-2.54627 -1.446091,-2.6402 -0.307888,-0.19028 -0.182888,2.46118 0.16951,3.59562 0.162822,0.52416 0.136533,0.59724 -0.126648,0.3521 -0.182668,-0.17015 -0.535863,-1.05366 -0.784881,-1.96335 l -0.452758,-1.654 -1.07533,2.22794 c -0.591431,1.22536 -1.126974,2.40477 -1.190093,2.62091 -0.187375,0.64162 3.79077,3.44348 4.88914,3.44348 0.163761,0 -0.350006,-0.58264 -1.141703,-1.29476 -0.7917,-0.71212 -1.353058,-1.38391 -1.247463,-1.49286 0.193511,-0.19966 2.682796,1.74141 3.909052,3.04817 0.67655,0.72097 1.539192,1.30454 1.949633,1.3189 0.126412,0.004 -0.100259,-0.43843 -0.503712,-0.98414 z m -21.289671,-0.0661 c 0,-0.23092 -0.811384,-0.59973 -0.97014,-0.44098 -0.05536,0.0554 -0.02846,0.28877 0.05977,0.51869 0.155604,0.4055 0.910373,0.34107 0.910373,-0.0777 z m 1.5875,-0.65791 c 0,-0.22898 -1.899476,-0.93003 -2.479707,-0.9152 -0.365932,0.009 -0.146243,0.18497 0.627624,0.50173 1.2212,0.49986 1.852083,0.6407 1.852083,0.41347 z m 1.852083,-0.54212 c 0,-0.29463 -2.40221,-1.15657 -2.798998,-1.00431 -0.301601,0.11574 -0.138517,0.28827 0.596665,0.63122 0.978008,0.45623 2.202333,0.66364 2.202333,0.37309 z m 2.071807,-0.52053 c -0.408429,-0.40843 -2.556187,-1.31255 -2.941648,-1.23831 -0.78231,0.15066 -0.498298,0.46967 0.803695,0.90274 1.240828,0.41273 2.396504,0.59412 2.137953,0.33557 z m 8.665567,-0.42627 c -0.769202,-0.60506 -1.232945,-0.49994 -0.688515,0.15606 0.184076,0.2218 0.574289,0.40327 0.867135,0.40327 0.477219,0 0.458687,-0.058 -0.17862,-0.55933 z m -12.334999,-1.29746 c 0.649274,-0.25504 1.217308,-0.57413 1.262295,-0.7091 0.04499,-0.13496 -0.396938,-0.98609 -0.982062,-1.89139 -0.585121,-0.90529 -1.063858,-1.71764 -1.063858,-1.80521 0,-0.36484 1.62564,1.70941 2.051508,2.61764 0.351488,0.74961 0.620295,0.98603 1.123492,0.98814 1.277073,0.005 1.386166,-0.25128 0.961314,-2.2614 -0.212588,-1.00582 -0.46604,-2.06689 -0.563227,-2.35793 -0.17163,-0.51398 -0.165018,-0.51488 0.230399,-0.0311 0.223907,0.27392 0.554501,1.37525 0.734653,2.44739 0.350441,2.0856 0.474625,2.19389 2.036466,1.77575 0.616336,-0.165 0.620718,-0.19345 0.529167,-3.43603 -0.05077,-1.79831 -0.01992,-3.26962 0.06855,-3.26959 0.331743,1.3e-4 0.767416,4.628 0.529307,5.62246 l -0.237567,0.99219 1.691929,0.0441 c 0.93056,0.0243 1.876642,0.054 2.1024,0.0661 0.258604,0.0139 0.630063,-0.51825 1.00398,-1.43825 0.852098,-2.09654 2.117331,-4.22249 3.338833,-5.61019 1.024363,-1.16374 1.040087,-1.20948 0.468434,-1.3627 -1.167958,-0.31305 -9.753648,-0.158 -12.814938,0.23143 -5.389375,0.68558 -8.522917,1.61454 -12.286242,3.64234 l -2.020086,1.08848 1.226336,0.57046 c 1.544519,0.71847 5.292326,3.53348 6.279259,4.71641 l 0.747183,0.89556 1.200989,-0.53093 c 0.660542,-0.29202 1.732213,-0.73961 2.381488,-0.99465 z m 4.772625,0.66616 c -1.081479,-0.5791 -3.005854,-0.93328 -2.540071,-0.4675 0.348234,0.34824 2.39187,1.07372 3.069238,1.08957 0.548878,0.0129 0.458817,-0.093 -0.529167,-0.62207 z m 3.349903,-0.13229 c -0.935635,-0.59336 -1.566574,-0.79354 -2.499196,-0.79292 l -1.247582,7.9e-4 1.5875,0.77264 c 0.873125,0.42495 1.997763,0.78177 2.499196,0.79292 l 0.911696,0.0203 -1.251614,-0.79375 z m 2.499783,-0.0662 c -0.175424,-0.47756 -0.4485,-0.60806 -1.380537,-0.65976 l -1.161857,-0.0645 1.190625,0.6478 c 1.485577,0.80829 1.623478,0.81608 1.351769,0.0764 z m 20.410206,11.90043 c -0.93733,-0.18019 -1.38906,-0.3957 -1.38906,-0.66266 0,-0.3172 0.23814,-0.36299 1.20129,-0.23097 1.39976,0.19185 2.31908,0.62083 2.0978,0.97887 -0.0854,0.13823 -0.23759,0.23567 -0.33814,0.21656 -0.10055,-0.0191 -0.8079,-0.15493 -1.57189,-0.3018 z m -2.18281,-2.95281 c 0,-0.0969 0.50602,-0.40578 1.12448,-0.68651 1.18064,-0.53591 3.37344,-0.70654 3.37344,-0.2625 0,0.26836 -0.43909,0.39521 -2.24896,0.6497 -0.58208,0.0818 -1.32622,0.22229 -1.65365,0.3121 -0.32742,0.0898 -0.59531,0.0841 -0.59531,-0.0128 z"
       id="path856" />
  </g>
</svg>
